# Blender 3.3.0
# www.blender.org
o Bed
v -1.089481 0.212593 -0.625425
v -1.089481 0.302556 -0.625425
v -1.089481 0.212593 -0.004509
v -1.089481 0.302556 -0.004509
v -1.013001 -0.021140 -0.474938
v -1.052186 0.226873 -0.435753
v -1.013001 -0.021140 -0.546567
v -1.052186 0.226873 -0.585753
v -0.941372 -0.021140 -0.474938
v -0.902186 0.226873 -0.435753
v -0.941372 -0.021140 -0.546567
v -0.902186 0.226873 -0.585753
v 1.219599 0.212593 -0.625425
v 1.219599 0.302556 -0.625425
v 1.219599 0.212593 -0.004509
v 1.219599 0.302556 -0.004509
v 1.143119 -0.021140 -0.474938
v 1.182305 0.226873 -0.435753
v 1.143119 -0.021140 -0.546567
v 1.182305 0.226873 -0.585753
v 1.071490 -0.021140 -0.474938
v 1.032305 0.226873 -0.435753
v 1.071490 -0.021140 -0.546567
v 1.032305 0.226873 -0.585753
v 1.194131 0.318077 -0.605792
v -1.064012 0.318077 -0.605792
v 1.194131 0.318077 -0.004509
v -1.064012 0.318077 -0.004509
v 1.264536 0.365631 -0.623655
v -1.132848 0.365162 -0.617328
v 1.256838 0.362094 0.000490
v -1.127411 0.364278 -0.007955
v 1.266160 0.751719 -0.625211
v -1.137987 0.749569 -0.624513
v 1.262271 0.780653 -0.010201
v -1.125184 0.780839 -0.010102
v 0.675909 0.212593 -0.625425
v 0.675909 0.302556 -0.625425
v 0.675909 0.212593 -0.004509
v 0.662434 0.318077 -0.605792
v -0.857582 0.302556 -0.625425
v -0.837229 0.318077 -0.605792
v -0.893167 0.365751 -0.619025
v -0.888982 0.747581 -0.628424
v -0.857582 0.212593 -0.625425
v -0.857582 0.212593 -0.004509
v -0.899442 0.771477 -0.005108
v 1.033006 0.212593 -0.625425
v 1.033006 0.212593 -0.004509
v 1.075128 0.808662 0.001272
v 1.033006 0.302556 -0.625425
v 1.011654 0.318077 -0.605792
v 1.073384 0.369895 -0.626276
v 1.070196 0.781786 -0.625842
v -1.089481 0.212593 0.616406
v -1.089481 0.302556 0.616406
v -1.013001 -0.021140 0.465920
v -1.052186 0.226873 0.426734
v -1.013001 -0.021140 0.537549
v -1.052186 0.226873 0.576734
v -0.941372 -0.021140 0.465920
v -0.902186 0.226873 0.426734
v -0.941372 -0.021140 0.537549
v -0.902186 0.226873 0.576734
v 1.219599 0.212593 0.616406
v 1.219599 0.302556 0.616406
v 1.143119 -0.021140 0.465920
v 1.182305 0.226873 0.426734
v 1.143119 -0.021140 0.537549
v 1.182305 0.226873 0.576734
v 1.071490 -0.021140 0.465920
v 1.032305 0.226873 0.426734
v 1.071490 -0.021140 0.537549
v 1.032305 0.226873 0.576734
v 1.194131 0.318077 0.596774
v -1.064012 0.318077 0.596774
v 1.265030 0.366041 0.614690
v -1.139577 0.360656 0.614396
v 1.267259 0.749231 0.615286
v -1.131192 0.751626 0.611145
v 0.675909 0.212593 0.616406
v 0.675909 0.302556 0.616406
v 0.662434 0.318077 0.596774
v -0.857582 0.302556 0.616406
v -0.837229 0.318077 0.596774
v -0.894779 0.362306 0.611961
v -0.894245 0.745924 0.616942
v -0.857582 0.212593 0.616406
v 1.033006 0.212593 0.616406
v 1.033006 0.302556 0.616406
v 1.011654 0.318077 0.596774
v 1.072060 0.365454 0.619701
v 1.081846 0.773934 0.616331
v -1.013477 0.357920 -0.631192
v -1.161289 0.349301 -0.308341
v 1.295674 0.349486 -0.321044
v 1.167089 0.800610 0.002137
v -1.014080 0.751469 -0.626774
v -1.155474 0.781796 -0.317814
v 1.298544 0.780580 -0.311430
v -1.151542 0.550216 -0.632568
v 1.283234 0.557021 -0.634074
v -1.153472 0.573366 0.013597
v 1.289721 0.571583 0.003581
v 0.890232 0.363094 -0.623989
v -0.112315 0.794288 -0.013172
v 0.886975 0.776122 -0.620195
v -0.092158 0.372185 -0.607680
v -0.091088 0.760505 -0.604217
v -1.011503 0.783132 -0.000737
v -0.885562 0.798527 -0.320340
v -0.897598 0.560607 -0.649032
v 0.884145 0.813488 -0.006503
v 1.169512 0.358317 -0.628866
v 1.171286 0.769651 -0.628502
v 1.074559 0.565978 -0.641897
v 1.075899 0.834625 -0.318097
v -1.010814 0.359874 0.625433
v -1.145144 0.362152 0.301668
v 1.275368 0.368300 0.301308
v -1.018097 0.756516 0.617893
v -1.138576 0.765068 0.304103
v 1.272997 0.768607 0.306536
v -1.152929 0.553443 0.631335
v 1.279504 0.553829 0.626837
v 0.887450 0.361893 0.618842
v 0.886847 0.777018 0.608169
v -0.108626 0.345912 0.588130
v -0.085114 0.760334 0.656929
v -0.891662 0.784281 0.310564
v -0.891682 0.557900 0.632003
v 1.166815 0.360694 0.620779
v 1.167682 0.766607 0.621941
v 1.080875 0.570846 0.640149
v 1.068830 0.805904 0.299776
v 0.895608 0.811086 0.306400
v 1.182185 0.567369 0.641064
v -0.121235 0.574755 0.643263
v -1.026954 0.773284 0.318696
v 0.894248 0.569369 0.638911
v -0.104278 0.784402 0.312567
v 1.290699 0.572613 0.307866
v -1.174333 0.558765 0.319829
v 1.170705 0.790575 0.313876
v -1.019327 0.554454 0.646630
v 0.882900 0.842727 -0.311497
v 1.177735 0.564567 -0.657838
v -0.088683 0.568522 -0.630035
v -1.021454 0.802706 -0.319189
v 0.887235 0.566248 -0.646735
v -0.081067 0.825670 -0.317952
v 1.324315 0.564780 -0.322152
v -1.189519 0.573174 -0.317222
v 1.192494 0.819329 -0.315746
v -1.024190 0.559809 -0.649344
v 0.703561 0.382915 -0.636527
v 0.714600 0.395132 -0.615549
v 0.706251 0.378493 -0.634596
v 0.692188 0.806532 0.001220
v 0.703858 0.793699 0.000918
v 0.685543 0.757985 -0.606833
v 0.672674 0.768527 -0.627336
v 0.703271 0.365881 0.581629
v 0.691516 0.350792 0.600840
v 0.693171 0.346775 0.600420
v 0.683758 0.765759 0.595455
v 0.695934 0.755483 0.575706
v 0.694897 0.831970 -0.309190
v 0.706398 0.817664 -0.299171
v 0.703712 0.574634 -0.627574
v 0.691974 0.573718 -0.648676
v 0.705150 0.787421 0.293409
v 0.693572 0.799700 0.303472
v 0.697680 0.571722 0.641412
v 0.709064 0.572858 0.620144
vn 0.5204 0.8539 -0.0000
vn -0.9877 -0.1561 -0.0000
vn -0.0000 -0.1561 -0.9877
vn 0.9877 -0.1561 -0.0000
vn -0.0000 -0.1561 0.9877
vn -0.0000 -1.0000 -0.0000
vn -0.0000 1.0000 -0.0000
vn 1.0000 -0.0000 -0.0000
vn -1.0000 -0.0000 -0.0000
vn -0.0000 0.7845 -0.6202
vn 0.4784 -0.8781 -0.0009
vn 0.2049 -0.7480 -0.6313
vn 0.6247 -0.4842 -0.6126
vn 0.8122 -0.5833 -0.0005
vn 0.8193 -0.5728 0.0238
vn -0.5204 0.8539 -0.0000
vn -0.0000 -0.0000 -1.0000
vn -0.0392 -0.0024 -0.9992
vn -0.7109 -0.0096 -0.7032
vn -0.5716 0.5687 -0.5915
vn -0.0437 0.6916 -0.7209
vn -0.0046 -0.2536 -0.9673
vn -0.2094 -0.7267 -0.6542
vn -0.6304 -0.4862 -0.6052
vn -0.0172 -0.2558 -0.9666
vn 0.0175 -0.2427 -0.9699
vn -0.4694 -0.8830 -0.0036
vn -0.8178 -0.5754 0.0149
vn -0.8178 -0.5755 0.0046
vn 0.2013 0.9785 -0.0453
vn 0.1770 0.9832 0.0451
vn 0.7360 0.6746 0.0571
vn 0.7705 0.6369 -0.0241
vn -1.0000 0.0087 0.0020
vn -0.9997 0.0138 0.0205
vn -0.6583 0.7514 0.0464
vn -0.6961 0.7174 -0.0287
vn 1.0000 -0.0071 -0.0054
vn 0.7227 -0.0083 -0.6911
vn 0.6249 0.5142 -0.5875
vn -0.1232 0.9910 -0.0524
vn -0.1181 0.9917 0.0506
vn -0.0448 0.9977 0.0512
vn -0.0532 0.9971 -0.0546
vn 0.0016 -0.2352 -0.9719
vn -0.0047 -0.1591 -0.9872
vn 0.3992 -0.0346 -0.9162
vn 0.2432 -0.1333 -0.9608
vn -0.0567 -0.1791 0.9822
vn -0.0794 0.0188 0.9967
vn -0.1479 0.0275 0.9886
vn 0.3468 -0.1791 0.9207
vn -0.0235 0.9986 -0.0473
vn -0.0179 0.9992 0.0359
vn 0.0066 0.9992 0.0393
vn 0.0097 0.9988 -0.0483
vn -0.0132 0.9985 0.0527
vn 0.4015 0.9131 0.0705
vn 0.4008 0.9147 0.0520
vn -0.0193 0.9985 0.0517
vn -0.0033 0.0050 -1.0000
vn 0.0239 -0.0042 -0.9997
vn 0.0094 0.6765 -0.7364
vn -0.0110 0.6845 -0.7290
vn 0.0291 0.0001 -0.9996
vn -0.0451 0.0007 -0.9990
vn 0.0147 0.6935 -0.7203
vn 0.1356 0.6776 -0.7228
vn 0.0128 -0.3274 -0.9448
vn -0.0226 -0.2460 -0.9690
vn 0.0105 -0.2719 -0.9623
vn 0.0725 0.9962 0.0476
vn 0.0671 0.9964 -0.0514
vn -0.0000 0.7845 0.6202
vn 0.8600 -0.5103 -0.0007
vn 0.6682 -0.4501 0.5924
vn 0.2772 -0.7332 0.6209
vn -0.0000 -0.0000 1.0000
vn -0.0038 0.0072 1.0000
vn -0.0285 0.7294 0.6835
vn -0.5696 0.6158 0.5444
vn -0.7218 0.0159 0.6920
vn 0.0046 -0.1069 0.9943
vn 0.0351 -0.2572 0.9657
vn 0.0091 -0.2839 0.9588
vn -0.6597 -0.4801 0.5782
vn -0.2399 -0.7450 0.6224
vn -0.8395 -0.5432 -0.0127
vn 0.1587 0.9858 0.0543
vn 0.7469 0.6640 0.0349
vn -0.9999 0.0120 -0.0026
vn -0.6820 0.7309 0.0267
vn 1.0000 0.0005 0.0043
vn 0.6324 0.5389 0.5564
vn 0.7342 -0.0082 0.6789
vn -0.0189 0.9983 -0.0550
vn 0.4267 0.9008 -0.0811
vn 0.4109 -0.0051 0.9117
vn 0.5055 -0.0251 0.8625
vn -0.0000 -0.0751 0.9972
vn 0.0023 -0.0991 0.9951
vn 0.4456 0.6427 0.6231
vn -0.0012 0.6808 0.7325
vn -0.0284 0.9986 0.0453
vn -0.0056 0.9990 0.0435
vn -0.1676 0.7413 0.6499
vn -0.0839 0.7220 0.6867
vn -0.0479 0.9970 0.0612
vn -0.1231 0.9905 0.0608
vn 0.0083 0.6911 0.7227
vn 0.0390 -0.0400 0.9984
vn 0.0472 0.0035 0.9989
vn 0.1222 0.7001 0.7036
vn 0.0285 0.7230 0.6902
vn -0.0180 0.0118 0.9998
vn 0.0265 -0.2797 0.9597
vn -0.0037 -0.2540 0.9672
vn -0.0220 -0.2942 0.9555
vn 0.0688 0.9962 0.0537
vn -0.1300 0.6699 -0.7310
vn -0.0646 0.6763 -0.7338
vn -0.0047 -0.0629 0.9980
vn 0.1564 -0.0602 0.9859
vn 0.9990 -0.0053 0.0437
vn 0.4877 0.0522 -0.8714
vn 0.4056 0.6067 -0.6837
vn 0.3600 -0.1209 -0.9251
vn -0.0100 -0.1962 -0.9805
vn -0.0424 0.0049 -0.9991
vn -0.0871 0.0192 -0.9960
vn 0.7721 0.6351 -0.0220
vn 0.8611 0.3948 -0.3203
vn 0.8727 0.0813 -0.4814
vn 0.8406 0.4707 0.2680
vn 0.7410 0.6701 0.0421
vn 0.8844 0.0371 0.4652
vn 0.7425 0.6689 0.0355
vt 0.217878 0.937384
vt 0.217878 0.937384
vt 0.217878 0.937384
vt 0.217878 0.937384
vt 0.217878 0.937384
vt 0.217878 0.937384
vt 0.217878 0.937384
vt 0.217878 0.937384
vt 0.217878 0.937384
vt 0.217878 0.937384
vt 0.217878 0.937384
vt 0.217878 0.937384
vt 0.217878 0.937384
vt 0.217878 0.937384
vt 0.217878 0.937384
vt 0.217878 0.937384
vt 0.217878 0.937384
vt 0.217878 0.937384
vt 0.217878 0.937384
vt 0.217878 0.937384
vt 0.217878 0.937384
vt 0.217878 0.937384
vt 0.217878 0.937384
vt 0.217878 0.937384
vt 0.299805 0.936838
vt 0.217878 0.937384
vt 0.299774 0.937188
vt 0.217878 0.937384
vt 0.299805 0.936838
vt 0.217878 0.937384
vt 0.299805 0.936838
vt 0.217878 0.937384
vt 0.299805 0.936838
vt 0.299805 0.936838
vt 0.299774 0.937188
vt 0.299805 0.936838
vt 0.255746 0.981451
vt 0.299774 0.937188
vt 0.299805 0.936838
vt 0.299805 0.936838
vt 0.255746 0.981451
vt 0.299774 0.937188
vt 0.255746 0.981451
vt 0.299774 0.937188
vt 0.299805 0.936838
vt 0.255746 0.981451
vt 0.217878 0.937384
vt 0.217878 0.937384
vt 0.217878 0.937384
vt 0.217878 0.937384
vt 0.299774 0.937188
vt 0.217878 0.937384
vt 0.299805 0.936838
vt 0.299774 0.937188
vt 0.217878 0.937384
vt 0.299805 0.936838
vt 0.299774 0.937188
vt 0.255746 0.981451
vt 0.255746 0.981451
vt 0.217878 0.937384
vt 0.217878 0.937384
vt 0.255746 0.981451
vt 0.217878 0.937384
vt 0.217878 0.937384
vt 0.299774 0.937188
vt 0.217878 0.937384
vt 0.217878 0.937384
vt 0.299774 0.937188
vt 0.299774 0.937188
vt 0.299774 0.937188
vt 0.217878 0.937384
vt 0.217878 0.937384
vt 0.217878 0.937384
vt 0.217878 0.937384
vt 0.217878 0.937384
vt 0.217878 0.937384
vt 0.217878 0.937384
vt 0.217878 0.937384
vt 0.217878 0.937384
vt 0.217878 0.937384
vt 0.217878 0.937384
vt 0.217878 0.937384
vt 0.217878 0.937384
vt 0.217878 0.937384
vt 0.217878 0.937384
vt 0.217878 0.937384
vt 0.217878 0.937384
vt 0.217878 0.937384
vt 0.217878 0.937384
vt 0.217878 0.937384
vt 0.217878 0.937384
vt 0.299805 0.936838
vt 0.217878 0.937384
vt 0.299805 0.936838
vt 0.299805 0.936838
vt 0.299805 0.936838
vt 0.255746 0.981451
vt 0.299805 0.936838
vt 0.299774 0.937188
vt 0.255746 0.981451
vt 0.217878 0.937384
vt 0.217878 0.937384
vt 0.217878 0.937384
vt 0.299805 0.936838
vt 0.217878 0.937384
vt 0.217878 0.937384
vt 0.299805 0.936838
vt 0.299805 0.936838
vt 0.255746 0.981451
vt 0.255746 0.981451
vt 0.217878 0.937384
vt 0.217878 0.937384
vt 0.217878 0.937384
vt 0.217878 0.937384
vt 0.299805 0.936838
vt 0.299805 0.936838
vt 0.299805 0.936838
vt 0.299774 0.937188
vt 0.299805 0.936838
vt 0.255746 0.981451
vt 0.299805 0.936838
vt 0.255746 0.981451
vt 0.299805 0.936838
vt 0.299774 0.937188
vt 0.299774 0.937188
vt 0.255746 0.981451
vt 0.255746 0.981451
vt 0.299805 0.936838
vt 0.299774 0.937188
vt 0.255746 0.981451
vt 0.299774 0.937188
vt 0.255746 0.981451
vt 0.299774 0.937188
vt 0.299805 0.936838
vt 0.299774 0.937188
vt 0.255746 0.981451
vt 0.299774 0.937188
vt 0.299774 0.937188
vt 0.255746 0.981451
vt 0.255746 0.981451
vt 0.255746 0.981451
vt 0.255746 0.981451
vt 0.255746 0.981451
vt 0.299774 0.937188
vt 0.299774 0.937188
vt 0.299774 0.937188
vt 0.299774 0.937188
vt 0.299774 0.937188
vt 0.299805 0.936838
vt 0.255746 0.981451
vt 0.299805 0.936838
vt 0.255746 0.981451
vt 0.299805 0.936838
vt 0.299774 0.937188
vt 0.255746 0.981451
vt 0.255746 0.981451
vt 0.299774 0.937188
vt 0.255746 0.981451
vt 0.299774 0.937188
vt 0.299805 0.936838
vt 0.299805 0.936838
vt 0.299774 0.937188
vt 0.299805 0.936838
vt 0.255746 0.981451
vt 0.299805 0.936838
vt 0.255746 0.981451
vt 0.255746 0.981451
vt 0.255746 0.981451
vt 0.299805 0.936838
vt 0.299805 0.936838
vt 0.299774 0.937188
vt 0.299805 0.936838
vt 0.299774 0.937188
vt 0.299774 0.937188
vt 0.299805 0.936838
vt 0.255746 0.981451
vt 0.255746 0.981451
vt 0.299805 0.936838
vt 0.255746 0.981451
vt 0.299805 0.936838
vt 0.299774 0.937188
vt 0.255746 0.981451
vt 0.299774 0.937188
vt 0.255746 0.981451
vt 0.299774 0.937188
vt 0.299774 0.937188
vt 0.255746 0.981451
vt 0.255746 0.981451
vt 0.299774 0.937188
vt 0.255746 0.981451
vt 0.299805 0.936838
vt 0.299774 0.937188
vt 0.255746 0.981451
vt 0.299774 0.937188
vt 0.255746 0.981451
vt 0.255746 0.981451
vt 0.299774 0.937188
vt 0.257732 0.980409
vt 0.257732 0.980409
vt 0.299774 0.937188
vt 0.299774 0.937188
vt 0.255746 0.981451
vt 0.257732 0.980409
vt 0.299774 0.937188
vt 0.257732 0.980409
vt 0.299774 0.937188
vt 0.257732 0.980409
vt 0.255746 0.981451
vt 0.257732 0.980409
vt 0.299805 0.936838
vt 0.257732 0.980409
vt 0.255746 0.981451
vt 0.299805 0.936838
vt 0.257732 0.980409
vt 0.299805 0.936838
vt 0.255746 0.981451
vt 0.257732 0.980409
vt 0.299774 0.937188
vt 0.299805 0.936838
vt 0.257732 0.980409
vt 0.255746 0.981451
vt 0.257732 0.980409
vt 0.299774 0.937188
vt 0.257732 0.980409
vt 0.257732 0.980409
vt 0.299774 0.937188
vt 0.255746 0.981451
vt 0.257732 0.980409
vt 0.299774 0.937188
vt 0.257732 0.980409
vt 0.255746 0.981451
vt 0.257732 0.980409
vt 0.255746 0.981451
vt 0.257732 0.980409
vt 0.299805 0.936838
vt 0.257732 0.980409
s 0
f 16/16/1 14/14/1 25/26/1 27/30/1
f 5/5/2 6/6/2 8/8/2 7/7/2
f 7/7/3 8/8/3 12/12/3 11/11/3
f 11/11/4 12/12/4 10/10/4 9/9/4
f 9/9/5 10/10/5 6/6/5 5/5/5
f 7/7/6 11/11/6 9/9/6 5/5/6
f 12/12/7 8/8/7 6/6/7 10/10/7
f 15/15/8 13/13/8 14/14/8 16/16/8
f 3/3/9 4/4/9 2/2/9 1/1/9
f 17/17/4 19/19/4 20/20/4 18/18/4
f 19/19/3 23/23/3 24/24/3 20/20/3
f 23/23/2 21/21/2 22/22/2 24/24/2
f 21/21/5 17/17/5 18/18/5 22/22/5
f 19/19/6 17/17/6 21/21/6 23/23/6
f 24/24/7 22/22/7 18/18/7 20/20/7
f 41/52/10 2/2/10 26/28/10 42/55/10
s 1
f 27/31/11 25/25/12 29/34/13 96/123/14 31/39/15
s 0
f 49/64/6 48/63/6 13/13/6 15/15/6
f 2/2/16 4/4/16 28/32/16 26/28/16
f 45/60/17 1/1/17 2/2/17 41/52/17
s 1
f 155/195/18 101/130/19 34/43/20 98/126/21
f 42/53/22 26/29/23 30/36/24 94/119/25 43/56/26
f 26/29/23 28/33/27 32/40/28 95/121/29 30/36/24
f 154/194/30 97/125/31 35/44/32 100/129/33
f 153/193/34 103/132/35 36/46/36 99/127/37
f 152/192/38 102/131/39 33/42/40 100/129/33
f 169/223/41 160/204/42 113/144/43 146/185/44
f 40/51/45 42/54/22 43/57/26 108/138/46 156/197/47 158/201/48
f 126/161/49 140/178/50 175/235/51 163/210/52
s 0
f 48/63/17 37/47/17 38/48/17 51/66/17
f 46/61/6 45/60/6 37/47/6 39/49/6
f 51/66/10 38/48/10 40/50/10 52/67/10
f 3/3/6 1/1/6 45/60/6 46/61/6
s 1
f 149/188/53 110/141/54 47/62/55 111/142/56
f 141/179/57 173/231/58 159/202/59 106/136/60
f 148/187/61 112/143/62 44/59/63 109/140/64
s 0
f 37/47/17 45/60/17 41/52/17 38/48/17
f 38/48/10 41/52/10 42/55/10 40/50/10
f 14/14/10 51/66/10 52/67/10 25/26/10
f 13/13/17 48/63/17 51/66/17 14/14/17
s 1
f 147/186/65 116/147/66 54/70/67 115/146/68
f 25/27/12 52/68/69 53/69/70 114/145/71 29/35/13
f 146/185/44 113/144/43 50/65/72 117/148/73
s 0
f 39/49/6 37/47/6 48/63/6 49/64/6
f 16/16/1 27/30/1 75/91/1 66/82/1
f 57/73/2 59/75/2 60/76/2 58/74/2
f 59/75/5 63/79/5 64/80/5 60/76/5
f 63/79/4 61/77/4 62/78/4 64/80/4
f 61/77/3 57/73/3 58/74/3 62/78/3
f 59/75/6 57/73/6 61/77/6 63/79/6
f 64/80/7 62/78/7 58/74/7 60/76/7
f 15/15/8 16/16/8 66/82/8 65/81/8
f 3/3/9 55/71/9 56/72/9 4/4/9
f 67/83/4 68/84/4 70/86/4 69/85/4
f 69/85/5 70/86/5 74/90/5 73/89/5
f 73/89/2 74/90/2 72/88/2 71/87/2
f 71/87/3 72/88/3 68/84/3 67/83/3
f 69/85/6 73/89/6 71/87/6 67/83/6
f 74/90/7 70/86/7 68/84/7 72/88/7
f 84/105/74 85/106/74 76/93/74 56/72/74
s 1
f 27/31/11 31/39/15 120/153/75 77/95/76 75/92/77
s 0
f 49/64/6 15/15/6 65/81/6 89/112/6
f 56/72/16 76/93/16 28/32/16 4/4/16
f 88/111/78 84/105/78 56/72/78 55/71/78
s 1
f 145/184/79 121/155/80 80/100/81 124/158/82
f 85/107/83 86/108/84 118/149/85 78/96/86 76/94/87
f 76/94/87 78/96/86 119/151/88 32/40/28 28/33/27
f 144/183/89 123/157/90 35/44/32 97/125/31
f 143/182/91 122/156/92 36/46/36 103/132/35
f 142/181/93 123/157/90 79/99/94 125/159/95
f 151/190/96 106/136/60 159/202/59 168/221/97
f 164/212/98 174/233/99 138/176/100 128/164/101
f 174/233/99 166/216/102 129/166/103 138/176/100
s 0
f 89/112/78 90/113/78 82/102/78 81/101/78
f 46/61/6 39/49/6 81/101/6 88/111/6
f 90/113/74 91/114/74 83/103/74 82/102/74
f 3/3/6 46/61/6 88/111/6 55/71/6
s 1
f 139/177/104 130/167/105 47/62/55 110/141/54
f 167/218/106 127/162/107 136/174/108 172/229/109
f 138/176/100 129/166/103 87/110/110 131/168/111
s 0
f 81/101/78 82/102/78 84/105/78 88/111/78
f 82/102/74 83/103/74 85/106/74 84/105/74
f 66/82/74 75/91/74 91/114/74 90/113/74
f 65/81/78 66/82/78 90/113/78 89/112/78
s 1
f 137/175/112 133/170/113 93/117/114 134/172/115
f 75/92/77 77/95/76 132/169/116 92/116/117 91/115/118
f 136/174/108 135/173/119 50/65/72 113/144/43
s 0
f 39/49/6 49/64/6 89/112/6 81/101/6
s 1
f 161/206/120 169/223/41 146/185/44 107/137/121
f 129/166/103 166/216/102 173/231/58 141/179/57
f 127/162/107 93/118/114 135/173/119 136/174/108
f 132/169/116 137/175/112 134/172/115 92/116/117
f 77/95/76 125/160/95 137/175/112 132/169/116
f 125/160/95 79/98/94 133/170/113 137/175/112
f 128/164/101 138/176/100 131/168/111 86/109/84
f 83/104/122 165/215/123 164/213/98 128/165/101 86/108/84 85/107/83
f 122/156/92 139/177/104 110/141/54 36/46/36
f 80/100/81 121/155/80 139/177/104 122/156/92
f 121/155/80 87/110/110 130/167/105 139/177/104
f 91/115/118 92/116/117 126/161/49 163/210/52 165/215/123 83/104/122
f 92/116/117 134/172/115 140/178/50 126/161/49
f 134/172/115 93/117/114 127/163/107 140/178/50
f 130/167/105 141/179/57 106/136/60 47/62/55
f 87/110/110 129/166/103 141/179/57 130/167/105
f 140/178/50 127/163/107 167/219/106 175/235/51
f 120/153/75 142/180/93 125/160/95 77/95/76
f 31/38/15 104/133/124 142/181/93 120/154/75
f 104/133/124 35/44/32 123/157/90 142/181/93
f 119/152/88 143/182/91 103/132/35 32/41/28
f 78/97/86 124/158/82 143/182/91 119/152/88
f 124/158/82 80/100/81 122/156/92 143/182/91
f 135/173/119 144/183/89 97/125/31 50/65/72
f 93/118/114 133/171/113 144/183/89 135/173/119
f 133/171/113 79/99/94 123/157/90 144/183/89
f 118/150/85 145/184/79 124/158/82 78/97/86
f 86/109/84 131/168/111 145/184/79 118/150/85
f 131/168/111 87/110/110 121/155/80 145/184/79
f 107/137/121 146/185/44 117/148/73 54/70/67
f 171/227/125 148/187/61 109/140/64 162/208/126
f 172/229/109 136/174/108 113/144/43 160/204/42
f 102/131/39 147/186/65 115/146/68 33/42/40
f 29/35/13 114/145/71 147/186/65 102/131/39
f 114/145/71 53/69/70 116/147/66 147/186/65
f 109/140/64 151/190/96 168/221/97 162/208/126
f 52/68/69 40/51/45 158/201/48 157/200/127 105/135/128 53/69/70
f 108/139/46 43/58/26 112/143/62 148/187/61
f 98/126/21 149/188/53 111/142/56 44/59/63
f 34/43/20 99/127/37 149/188/53 98/126/21
f 99/127/37 36/46/36 110/141/54 149/188/53
f 116/147/66 150/189/129 107/137/121 54/70/67
f 53/69/70 105/135/128 150/189/129 116/147/66
f 156/196/47 108/139/46 148/187/61 171/227/125
f 150/189/129 170/226/130 161/206/120 107/137/121
f 44/59/63 111/142/56 151/190/96 109/140/64
f 111/142/56 47/62/55 106/136/60 151/190/96
f 104/134/124 152/191/38 100/128/33 35/45/32
f 31/39/15 96/123/14 152/191/38 104/134/124
f 96/124/14 29/35/13 102/131/39 152/192/38
f 101/130/19 153/193/34 99/127/37 34/43/20
f 30/37/24 95/122/29 153/193/34 101/130/19
f 95/122/29 32/41/28 103/132/35 153/193/34
f 115/146/68 154/194/30 100/129/33 33/42/40
f 54/70/67 117/148/73 154/194/30 115/146/68
f 117/148/73 50/65/72 97/125/31 154/194/30
f 112/143/62 155/195/18 98/126/21 44/59/63
f 43/58/26 94/120/25 155/195/18 112/143/62
f 94/120/25 30/37/24 101/130/19 155/195/18
f 156/197/47 157/200/127 158/201/48
f 163/210/52 164/213/98 165/215/123
f 169/224/131 161/207/132 162/209/126 168/222/97
f 171/228/125 162/209/126 161/207/132 170/225/133
f 173/232/58 166/217/102 167/220/134 172/230/135
f 175/236/136 167/220/134 166/217/102 174/234/99
f 160/205/137 169/224/131 168/222/97 159/203/59
f 156/198/47 171/228/125 170/225/133 157/199/127
f 159/203/59 173/232/58 172/230/135 160/205/137
f 163/211/52 175/236/136 174/234/99 164/214/98
f 105/135/128 157/200/127 170/226/130 150/189/129
