# Blender 3.3.0
# www.blender.org
o Cube
v -0.041566 0.100363 0.059701
v -0.041566 0.113797 0.078996
v -0.055000 0.113797 0.059701
v -0.041566 0.104298 0.073345
v -0.049322 0.106041 0.070841
v -0.051065 0.113797 0.073345
v -0.051065 0.104298 0.059701
v -0.041566 0.196929 0.078996
v -0.041566 0.210363 0.059701
v -0.055000 0.196929 0.059701
v -0.041566 0.206428 0.073345
v -0.049322 0.204685 0.070841
v -0.051065 0.206428 0.059701
v -0.051065 0.196929 0.073345
v -0.041566 0.100363 -0.059701
v -0.055000 0.113797 -0.059701
v -0.041566 0.113797 -0.078996
v -0.051065 0.104298 -0.059701
v -0.049322 0.106041 -0.070841
v -0.051065 0.113797 -0.073345
v -0.041566 0.104298 -0.073345
v -0.041566 0.210363 -0.059701
v -0.041566 0.196929 -0.078996
v -0.055000 0.196929 -0.059701
v -0.041566 0.206428 -0.073345
v -0.049322 0.204685 -0.070841
v -0.051065 0.196929 -0.073345
v -0.051065 0.206428 -0.059701
v 0.041566 0.100363 0.059701
v 0.055000 0.113797 0.059701
v 0.041566 0.113797 0.078996
v 0.051065 0.104298 0.059701
v 0.049322 0.106041 0.070841
v 0.051065 0.113797 0.073345
v 0.041566 0.104298 0.073345
v 0.041566 0.210363 0.059701
v 0.041566 0.196929 0.078996
v 0.055000 0.196929 0.059701
v 0.041566 0.206428 0.073345
v 0.049322 0.204685 0.070841
v 0.051065 0.196929 0.073345
v 0.051065 0.206428 0.059701
v 0.041566 0.100363 -0.059701
v 0.041566 0.113797 -0.078996
v 0.055000 0.113797 -0.059701
v 0.041566 0.104298 -0.073345
v 0.049322 0.106041 -0.070841
v 0.051065 0.113797 -0.073345
v 0.051065 0.104298 -0.059701
v 0.041566 0.210363 -0.059701
v 0.055000 0.196929 -0.059701
v 0.041566 0.196929 -0.078996
v 0.051065 0.206428 -0.059701
v 0.049322 0.204685 -0.070841
v 0.051065 0.196929 -0.073345
v 0.041566 0.206428 -0.073345
vn 0.2492 -0.2492 0.9358
vn 0.2492 0.2492 0.9358
vn -0.2492 0.2492 0.9358
vn -0.2492 -0.2492 0.9358
vn 0.9754 -0.1809 -0.1259
vn 0.9754 0.1809 -0.1259
vn 0.9754 0.1809 0.1259
vn 0.9754 -0.1809 0.1259
vn 0.1809 0.9754 -0.1259
vn -0.1809 0.9754 -0.1259
vn -0.1809 0.9754 0.1259
vn 0.1809 0.9754 0.1259
vn -0.9754 -0.1809 0.1259
vn -0.9754 0.1809 0.1259
vn -0.9754 0.1809 -0.1259
vn -0.9754 -0.1809 -0.1259
vn -0.2492 -0.2492 -0.9358
vn -0.2492 0.2492 -0.9358
vn 0.2492 0.2492 -0.9358
vn 0.2492 -0.2492 -0.9358
vn -0.1809 -0.9754 0.1259
vn -0.1641 -0.9517 0.2594
vn -0.3343 -0.9133 0.2327
vn -0.3623 -0.9254 0.1111
vn -0.4791 -0.2109 0.8520
vn -0.4219 -0.4219 0.8025
vn -0.2109 -0.4791 0.8520
vn -0.9254 -0.3623 0.1111
vn -0.9133 -0.3343 0.2327
vn -0.9517 -0.1641 0.2594
vn -0.2109 0.4791 0.8520
vn -0.4219 0.4219 0.8025
vn -0.4791 0.2109 0.8520
vn -0.3623 0.9254 0.1111
vn -0.3343 0.9133 0.2327
vn -0.1641 0.9517 0.2594
vn -0.9517 0.1641 0.2594
vn -0.9133 0.3343 0.2327
vn -0.9254 0.3623 0.1111
vn -0.1809 -0.9754 -0.1259
vn -0.3623 -0.9254 -0.1111
vn -0.3343 -0.9133 -0.2327
vn -0.1641 -0.9517 -0.2594
vn -0.9517 -0.1641 -0.2594
vn -0.9133 -0.3343 -0.2327
vn -0.9254 -0.3623 -0.1111
vn -0.2109 -0.4791 -0.8520
vn -0.4219 -0.4219 -0.8025
vn -0.4791 -0.2109 -0.8520
vn -0.1641 0.9517 -0.2594
vn -0.3343 0.9133 -0.2327
vn -0.3623 0.9254 -0.1111
vn -0.4791 0.2109 -0.8520
vn -0.4219 0.4219 -0.8025
vn -0.2109 0.4791 -0.8520
vn -0.9254 0.3623 -0.1111
vn -0.9133 0.3343 -0.2327
vn -0.9517 0.1641 -0.2594
vn 0.1809 -0.9754 0.1259
vn 0.3623 -0.9254 0.1111
vn 0.3343 -0.9133 0.2327
vn 0.1641 -0.9517 0.2594
vn 0.9517 -0.1641 0.2594
vn 0.9133 -0.3343 0.2327
vn 0.9254 -0.3623 0.1111
vn 0.2109 -0.4791 0.8520
vn 0.4219 -0.4219 0.8025
vn 0.4791 -0.2109 0.8520
vn 0.1641 0.9517 0.2594
vn 0.3343 0.9133 0.2327
vn 0.3623 0.9254 0.1111
vn 0.4791 0.2109 0.8520
vn 0.4219 0.4219 0.8025
vn 0.2109 0.4791 0.8520
vn 0.9254 0.3623 0.1111
vn 0.9133 0.3343 0.2327
vn 0.9517 0.1641 0.2594
vn 0.1809 -0.9754 -0.1259
vn 0.1641 -0.9517 -0.2594
vn 0.3343 -0.9133 -0.2327
vn 0.3623 -0.9254 -0.1111
vn 0.4791 -0.2109 -0.8520
vn 0.4219 -0.4219 -0.8025
vn 0.2109 -0.4791 -0.8520
vn 0.9254 -0.3623 -0.1111
vn 0.9133 -0.3343 -0.2327
vn 0.9517 -0.1641 -0.2594
vn 0.3623 0.9254 -0.1111
vn 0.3343 0.9133 -0.2327
vn 0.1641 0.9517 -0.2594
vn 0.9517 0.1641 -0.2594
vn 0.9133 0.3343 -0.2327
vn 0.9254 0.3623 -0.1111
vn 0.2109 0.4791 -0.8520
vn 0.4219 0.4219 -0.8025
vn 0.4791 0.2109 -0.8520
vt 0.027081 0.853219
vt 0.148667 0.974805
vt 0.148667 0.518158
vt 0.027081 0.868067
vt 0.133818 0.974805
vt 0.018508 0.868067
vt 0.140094 0.989654
vt 0.133818 0.509585
vt 0.148667 0.989654
vt 0.148667 0.503309
vt 0.012232 0.853219
vt 0.133818 0.518158
vt 0.240556 0.974805
vt 0.362142 0.853219
vt 0.240556 0.518158
vt 0.362142 0.868067
vt 0.255404 0.974805
vt 0.255404 0.983378
vt 0.376991 0.861792
vt 0.249129 0.503309
vt 0.376991 0.853219
vt 0.255404 0.518158
vt 0.240556 0.989654
vt 0.240556 0.503309
vt 0.027081 0.761330
vt 0.148667 0.610046
vt 0.148667 0.639744
vt 0.012232 0.761330
vt 0.133818 0.610046
vt 0.012232 0.752757
vt 0.140094 0.624895
vt 0.133818 0.631171
vt 0.148667 0.624895
vt 0.027081 0.746481
vt 0.133818 0.639744
vt 0.362142 0.761330
vt 0.240556 0.639744
vt 0.240556 0.610046
vt 0.362142 0.746481
vt 0.255404 0.639744
vt 0.370715 0.746481
vt 0.249129 0.624895
vt 0.255404 0.618619
vt 0.240556 0.624895
vt 0.376991 0.761330
vt 0.255404 0.610046
vt 0.118969 0.853219
vt 0.148667 0.853219
vt 0.148667 0.882916
vt 0.133818 0.853219
vt 0.135910 0.868067
vt 0.148667 0.868067
vt 0.118969 0.868067
vt 0.133818 0.882916
vt 0.270253 0.853219
vt 0.240556 0.882916
vt 0.240556 0.853219
vt 0.270253 0.868067
vt 0.255404 0.882916
vt 0.255404 0.865975
vt 0.240556 0.868067
vt 0.255404 0.853219
vt 0.118969 0.761330
vt 0.148667 0.731632
vt 0.148667 0.761330
vt 0.118969 0.746481
vt 0.133818 0.731632
vt 0.133818 0.748573
vt 0.148667 0.746481
vt 0.133818 0.761330
vt 0.270253 0.761330
vt 0.240556 0.761330
vt 0.240556 0.731632
vt 0.255404 0.761330
vt 0.253313 0.746481
vt 0.240556 0.746481
vt 0.270253 0.746481
vt 0.255404 0.731632
s 1
f 31/49/1 37/56/2 8/13/3 2/2/4
f 45/65/5 51/72/6 38/57/7 30/48/8
f 50/71/9 22/36/10 9/14/11 36/55/12
f 3/3/13 10/15/14 24/38/15 16/26/16
f 17/27/17 23/37/18 52/73/19 44/64/20
f 1/1/21 4/4/22 5/6/23 7/11/24
f 2/2/4 6/9/25 5/7/26 4/5/27
f 3/3/13 7/12/28 5/8/29 6/10/30
f 8/13/3 11/17/31 12/18/32 14/23/33
f 9/14/11 13/21/34 12/19/35 11/16/36
f 10/15/14 14/24/37 12/20/38 13/22/39
f 15/25/40 18/28/41 19/30/42 21/34/43
f 16/26/16 20/33/44 19/31/45 18/29/46
f 17/27/17 21/35/47 19/32/48 20/33/49
f 22/36/10 25/39/50 26/41/51 28/45/52
f 23/37/18 27/44/53 26/42/54 25/40/55
f 24/38/15 28/46/56 26/43/57 27/44/58
f 29/47/59 32/50/60 33/51/61 35/53/62
f 30/48/8 34/52/63 33/51/64 32/50/65
f 31/49/1 35/54/66 33/51/67 34/52/68
f 36/55/12 39/58/69 40/60/70 42/62/71
f 37/56/2 41/61/72 40/60/73 39/59/74
f 38/57/7 42/62/75 40/60/76 41/61/77
f 43/63/78 46/66/79 47/68/80 49/70/81
f 44/64/20 48/69/82 47/68/83 46/67/84
f 45/65/5 49/70/85 47/68/86 48/69/87
f 50/71/9 53/74/88 54/75/89 56/77/90
f 51/72/6 55/76/91 54/75/92 53/74/93
f 52/73/19 56/78/94 54/75/95 55/76/96
f 15/25/40 1/1/21 7/11/24 18/28/41
f 18/29/46 7/12/28 3/3/13 16/26/16
f 2/2/4 8/13/3 14/23/33 6/9/25
f 6/10/30 14/24/37 10/15/14 3/3/13
f 9/14/11 22/36/10 28/45/52 13/21/34
f 13/22/39 28/46/56 24/38/15 10/15/14
f 23/37/18 17/27/17 20/33/49 27/44/53
f 27/44/58 20/33/44 16/26/16 24/38/15
f 43/63/78 15/25/40 21/34/43 46/66/79
f 46/67/84 21/35/47 17/27/17 44/64/20
f 22/36/10 50/71/9 56/77/90 25/39/50
f 25/40/55 56/78/94 52/73/19 23/37/18
f 51/72/6 45/65/5 48/69/87 55/76/91
f 55/76/96 48/69/82 44/64/20 52/73/19
f 29/47/59 43/63/78 49/70/81 32/50/60
f 32/50/65 49/70/85 45/65/5 30/48/8
f 50/71/9 36/55/12 42/62/71 53/74/88
f 53/74/93 42/62/75 38/57/7 51/72/6
f 37/56/2 31/49/1 34/52/68 41/61/72
f 41/61/77 34/52/63 30/48/8 38/57/7
f 1/1/21 29/47/59 35/53/62 4/4/22
f 4/5/27 35/54/66 31/49/1 2/2/4
f 36/55/12 9/14/11 11/16/36 39/58/69
f 39/59/74 11/17/31 8/13/3 37/56/2
f 15/25/40 43/63/78 29/47/59 1/1/21
o Cylinder
v 0.000000 -0.105825 -0.025000
v 0.000000 0.105825 -0.025000
v 0.004877 -0.105825 -0.024520
v 0.004877 0.105825 -0.024520
v 0.009567 -0.105825 -0.023097
v 0.009567 0.105825 -0.023097
v 0.013889 -0.105825 -0.020787
v 0.013889 0.105825 -0.020787
v 0.017678 -0.105825 -0.017678
v 0.017678 0.105825 -0.017678
v 0.020787 -0.105825 -0.013889
v 0.020787 0.105825 -0.013889
v 0.023097 -0.105825 -0.009567
v 0.023097 0.105825 -0.009567
v 0.024520 -0.105825 -0.004877
v 0.024520 0.105825 -0.004877
v 0.025000 -0.105825 0.000000
v 0.025000 0.105825 0.000000
v 0.024520 -0.105825 0.004877
v 0.024520 0.105825 0.004877
v 0.023097 -0.105825 0.009567
v 0.023097 0.105825 0.009567
v 0.020787 -0.105825 0.013889
v 0.020787 0.105825 0.013889
v 0.017678 -0.105825 0.017678
v 0.017678 0.105825 0.017678
v 0.013889 -0.105825 0.020787
v 0.013889 0.105825 0.020787
v 0.009567 -0.105825 0.023097
v 0.009567 0.105825 0.023097
v 0.004877 -0.105825 0.024520
v 0.004877 0.105825 0.024520
v 0.000000 -0.105825 0.025000
v 0.000000 0.105825 0.025000
v -0.004877 -0.105825 0.024520
v -0.004877 0.105825 0.024520
v -0.009567 -0.105825 0.023097
v -0.009567 0.105825 0.023097
v -0.013889 -0.105825 0.020787
v -0.013889 0.105825 0.020787
v -0.017678 -0.105825 0.017678
v -0.017678 0.105825 0.017678
v -0.020787 -0.105825 0.013889
v -0.020787 0.105825 0.013889
v -0.023097 -0.105825 0.009567
v -0.023097 0.105825 0.009567
v -0.024520 -0.105825 0.004877
v -0.024520 0.105825 0.004877
v -0.025000 -0.105825 0.000000
v -0.025000 0.105825 0.000000
v -0.024520 -0.105825 -0.004877
v -0.024520 0.105825 -0.004877
v -0.023097 -0.105825 -0.009567
v -0.023097 0.105825 -0.009567
v -0.020787 -0.105825 -0.013889
v -0.020787 0.105825 -0.013889
v -0.017678 -0.105825 -0.017678
v -0.017678 0.105825 -0.017678
v -0.013889 -0.105825 -0.020787
v -0.013889 0.105825 -0.020787
v -0.009567 -0.105825 -0.023097
v -0.009567 0.105825 -0.023097
v -0.004877 -0.105825 -0.024520
v -0.004877 0.105825 -0.024520
vn -0.0000 -0.0000 -1.0000
vn 0.1951 -0.0000 -0.9808
vn 0.3827 -0.0000 -0.9239
vn 0.5556 -0.0000 -0.8315
vn 0.7071 -0.0000 -0.7071
vn 0.8315 -0.0000 -0.5556
vn 0.9239 -0.0000 -0.3827
vn 0.9808 -0.0000 -0.1951
vn 1.0000 -0.0000 -0.0000
vn 0.9808 -0.0000 0.1951
vn 0.9239 -0.0000 0.3827
vn 0.8315 -0.0000 0.5556
vn 0.7071 -0.0000 0.7071
vn 0.5556 -0.0000 0.8315
vn 0.3827 -0.0000 0.9239
vn 0.1951 -0.0000 0.9808
vn -0.0000 -0.0000 1.0000
vn -0.1951 -0.0000 0.9808
vn -0.3827 -0.0000 0.9239
vn -0.5556 -0.0000 0.8315
vn -0.7071 -0.0000 0.7071
vn -0.8315 -0.0000 0.5556
vn -0.9239 -0.0000 0.3827
vn -0.9808 -0.0000 0.1951
vn -1.0000 -0.0000 -0.0000
vn -0.9808 -0.0000 -0.1951
vn -0.9239 -0.0000 -0.3827
vn -0.8315 -0.0000 -0.5556
vn -0.7071 -0.0000 -0.7071
vn -0.5556 -0.0000 -0.8315
vn -0.3827 -0.0000 -0.9239
vn -0.0000 1.0000 -0.0000
vn -0.1951 -0.0000 -0.9808
vn -0.0000 -1.0000 -0.0000
vt 0.830996 0.773982
vt 0.415082 0.773982
vt 0.320925 0.973047
vt 0.830996 0.981939
vt 0.321755 0.972272
vt 0.415082 0.981939
vt 0.817999 0.773982
vt 0.328613 0.972290
vt 0.817999 0.981939
vt 0.329444 0.971515
vt 0.805002 0.773982
vt 0.336007 0.970047
vt 0.805002 0.981939
vt 0.336837 0.969272
vt 0.792004 0.773982
vt 0.342820 0.966405
vt 0.792004 0.981939
vt 0.343650 0.965630
vt 0.779007 0.773982
vt 0.348792 0.961504
vt 0.779007 0.981939
vt 0.349622 0.960729
vt 0.766010 0.773982
vt 0.353694 0.955532
vt 0.766010 0.981939
vt 0.354524 0.954757
vt 0.753012 0.773982
vt 0.357335 0.948718
vt 0.753012 0.981939
vt 0.358166 0.947943
vt 0.740015 0.773982
vt 0.359578 0.941325
vt 0.740015 0.981939
vt 0.360408 0.940550
vt 0.727018 0.773982
vt 0.360335 0.933636
vt 0.727018 0.981939
vt 0.361166 0.932861
vt 0.714020 0.773982
vt 0.359578 0.925948
vt 0.714020 0.981939
vt 0.360408 0.925173
vt 0.701023 0.773982
vt 0.357335 0.918555
vt 0.701023 0.981939
vt 0.358166 0.917780
vt 0.688026 0.773982
vt 0.353694 0.911741
vt 0.688026 0.981939
vt 0.354524 0.910966
vt 0.675028 0.773982
vt 0.348792 0.905769
vt 0.675028 0.981939
vt 0.349622 0.904994
vt 0.662031 0.773982
vt 0.342820 0.900868
vt 0.662031 0.981939
vt 0.343650 0.900093
vt 0.649034 0.773982
vt 0.336007 0.897226
vt 0.649034 0.981939
vt 0.336837 0.896451
vt 0.636036 0.773982
vt 0.328613 0.894983
vt 0.636036 0.981939
vt 0.329444 0.894208
vt 0.623039 0.773982
vt 0.320925 0.894226
vt 0.623039 0.981939
vt 0.321755 0.893451
vt 0.610042 0.773982
vt 0.313236 0.894983
vt 0.610042 0.981939
vt 0.314066 0.894208
vt 0.597044 0.773982
vt 0.305843 0.897226
vt 0.597044 0.981939
vt 0.306673 0.896451
vt 0.584047 0.773982
vt 0.299029 0.900868
vt 0.584047 0.981939
vt 0.299860 0.900093
vt 0.571050 0.773982
vt 0.293057 0.905769
vt 0.571050 0.981939
vt 0.293887 0.904994
vt 0.558053 0.773982
vt 0.288156 0.911741
vt 0.558053 0.981939
vt 0.288986 0.910966
vt 0.545055 0.773982
vt 0.284514 0.918555
vt 0.545055 0.981939
vt 0.285344 0.917780
vt 0.532058 0.773982
vt 0.282272 0.925948
vt 0.532058 0.981939
vt 0.283102 0.925173
vt 0.519061 0.773982
vt 0.281514 0.933636
vt 0.519061 0.981939
vt 0.282344 0.932861
vt 0.506063 0.773982
vt 0.282272 0.941325
vt 0.506063 0.981939
vt 0.283102 0.940550
vt 0.493066 0.773982
vt 0.284514 0.948718
vt 0.493066 0.981939
vt 0.285344 0.947943
vt 0.480069 0.773982
vt 0.288156 0.955532
vt 0.480069 0.981939
vt 0.288986 0.954757
vt 0.467071 0.773982
vt 0.293057 0.961504
vt 0.467071 0.981939
vt 0.293887 0.960729
vt 0.454074 0.773982
vt 0.299029 0.966405
vt 0.454074 0.981939
vt 0.299860 0.965630
vt 0.441077 0.773982
vt 0.305843 0.970047
vt 0.306673 0.969272
vt 0.441077 0.981939
vt 0.428079 0.773982
vt 0.313236 0.972290
vt 0.314066 0.971515
vt 0.428079 0.981939
s 1
f 57/79/97 58/82/97 60/87/98 59/85/98
f 59/85/98 60/87/98 62/91/99 61/89/99
f 61/89/99 62/91/99 64/95/100 63/93/100
f 63/93/100 64/95/100 66/99/101 65/97/101
f 65/97/101 66/99/101 68/103/102 67/101/102
f 67/101/102 68/103/102 70/107/103 69/105/103
f 69/105/103 70/107/103 72/111/104 71/109/104
f 71/109/104 72/111/104 74/115/105 73/113/105
f 73/113/105 74/115/105 76/119/106 75/117/106
f 75/117/106 76/119/106 78/123/107 77/121/107
f 77/121/107 78/123/107 80/127/108 79/125/108
f 79/125/108 80/127/108 82/131/109 81/129/109
f 81/129/109 82/131/109 84/135/110 83/133/110
f 83/133/110 84/135/110 86/139/111 85/137/111
f 85/137/111 86/139/111 88/143/112 87/141/112
f 87/141/112 88/143/112 90/147/113 89/145/113
f 89/145/113 90/147/113 92/151/114 91/149/114
f 91/149/114 92/151/114 94/155/115 93/153/115
f 93/153/115 94/155/115 96/159/116 95/157/116
f 95/157/116 96/159/116 98/163/117 97/161/117
f 97/161/117 98/163/117 100/167/118 99/165/118
f 99/165/118 100/167/118 102/171/119 101/169/119
f 101/169/119 102/171/119 104/175/120 103/173/120
f 103/173/120 104/175/120 106/179/121 105/177/121
f 105/177/121 106/179/121 108/183/122 107/181/122
f 107/181/122 108/183/122 110/187/123 109/185/123
f 109/185/123 110/187/123 112/191/124 111/189/124
f 111/189/124 112/191/124 114/195/125 113/193/125
f 113/193/125 114/195/125 116/199/126 115/197/126
f 115/197/126 116/199/126 118/204/127 117/201/127
f 60/88/128 58/83/128 120/207/128 118/203/128 116/200/128 114/196/128 112/192/128 110/188/128 108/184/128 106/180/128 104/176/128 102/172/128 100/168/128 98/164/128 96/160/128 94/156/128 92/152/128 90/148/128 88/144/128 86/140/128 84/136/128 82/132/128 80/128/128 78/124/128 76/120/128 74/116/128 72/112/128 70/108/128 68/104/128 66/100/128 64/96/128 62/92/128
f 117/201/127 118/204/127 120/208/129 119/205/129
f 119/205/129 120/208/129 58/84/97 57/80/97
f 57/81/130 59/86/130 61/90/130 63/94/130 65/98/130 67/102/130 69/106/130 71/110/130 73/114/130 75/118/130 77/122/130 79/126/130 81/130/130 83/134/130 85/138/130 87/142/130 89/146/130 91/150/130 93/154/130 95/158/130 97/162/130 99/166/130 101/170/130 103/174/130 105/178/130 107/182/130 109/186/130 111/190/130 113/194/130 115/198/130 117/202/130 119/206/130
