# Blender 3.3.0
# www.blender.org
o Cylinder.002
v 0.000000 -0.105825 -0.025000
v 0.000000 0.105825 -0.025000
v 0.004877 -0.105825 -0.024520
v 0.004877 0.105825 -0.024520
v 0.009567 -0.105825 -0.023097
v 0.009567 0.105825 -0.023097
v 0.013889 -0.105825 -0.020787
v 0.013889 0.105825 -0.020787
v 0.017678 -0.105825 -0.017678
v 0.017678 0.105825 -0.017678
v 0.020787 -0.105825 -0.013889
v 0.020787 0.105825 -0.013889
v 0.023097 -0.105825 -0.009567
v 0.023097 0.105825 -0.009567
v 0.024520 -0.105825 -0.004877
v 0.024520 0.105825 -0.004877
v 0.025000 -0.105825 0.000000
v 0.025000 0.105825 0.000000
v 0.024520 -0.105825 0.004877
v 0.024520 0.105825 0.004877
v 0.023097 -0.105825 0.009567
v 0.023097 0.105825 0.009567
v 0.020787 -0.105825 0.013889
v 0.020787 0.105825 0.013889
v 0.017678 -0.105825 0.017678
v 0.017678 0.105825 0.017678
v 0.013889 -0.105825 0.020787
v 0.013889 0.105825 0.020787
v 0.009567 -0.105825 0.023097
v 0.009567 0.105825 0.023097
v 0.004877 -0.105825 0.024520
v 0.004877 0.105825 0.024520
v 0.000000 -0.105825 0.025000
v 0.000000 0.105825 0.025000
v -0.004877 -0.105825 0.024520
v -0.004877 0.105825 0.024520
v -0.009567 -0.105825 0.023097
v -0.009567 0.105825 0.023097
v -0.013889 -0.105825 0.020787
v -0.013889 0.105825 0.020787
v -0.017678 -0.105825 0.017678
v -0.017678 0.105825 0.017678
v -0.020787 -0.105825 0.013889
v -0.020787 0.105825 0.013889
v -0.023097 -0.105825 0.009567
v -0.023097 0.105825 0.009567
v -0.024520 -0.105825 0.004877
v -0.024520 0.105825 0.004877
v -0.025000 -0.105825 0.000000
v -0.025000 0.105825 0.000000
v -0.024520 -0.105825 -0.004877
v -0.024520 0.105825 -0.004877
v -0.023097 -0.105825 -0.009567
v -0.023097 0.105825 -0.009567
v -0.020787 -0.105825 -0.013889
v -0.020787 0.105825 -0.013889
v -0.017678 -0.105825 -0.017678
v -0.017678 0.105825 -0.017678
v -0.013889 -0.105825 -0.020787
v -0.013889 0.105825 -0.020787
v -0.009567 -0.105825 -0.023097
v -0.009567 0.105825 -0.023097
v -0.004877 -0.105825 -0.024520
v -0.004877 0.105825 -0.024520
vn -0.0000 -0.0000 -1.0000
vn 0.1951 -0.0000 -0.9808
vn 0.3827 -0.0000 -0.9239
vn 0.5556 -0.0000 -0.8315
vn 0.7071 -0.0000 -0.7071
vn 0.8315 -0.0000 -0.5556
vn 0.9239 -0.0000 -0.3827
vn 0.9808 -0.0000 -0.1951
vn 1.0000 -0.0000 -0.0000
vn 0.9808 -0.0000 0.1951
vn 0.9239 -0.0000 0.3827
vn 0.8315 -0.0000 0.5556
vn 0.7071 -0.0000 0.7071
vn 0.5556 -0.0000 0.8315
vn 0.3827 -0.0000 0.9239
vn 0.1951 -0.0000 0.9808
vn -0.0000 -0.0000 1.0000
vn -0.1951 -0.0000 0.9808
vn -0.3827 -0.0000 0.9239
vn -0.5556 -0.0000 0.8315
vn -0.7071 -0.0000 0.7071
vn -0.8315 -0.0000 0.5556
vn -0.9239 -0.0000 0.3827
vn -0.9808 -0.0000 0.1951
vn -1.0000 -0.0000 -0.0000
vn -0.9808 -0.0000 -0.1951
vn -0.9239 -0.0000 -0.3827
vn -0.8315 -0.0000 -0.5556
vn -0.7071 -0.0000 -0.7071
vn -0.5556 -0.0000 -0.8315
vn -0.3827 -0.0000 -0.9239
vn -0.0000 1.0000 -0.0000
vn -0.1951 -0.0000 -0.9808
vn -0.0000 -1.0000 -0.0000
vt 0.830996 0.773982
vt 0.415082 0.773982
vt 0.320925 0.973047
vt 0.830996 0.981939
vt 0.321755 0.972272
vt 0.415082 0.981939
vt 0.817999 0.773982
vt 0.328613 0.972290
vt 0.817999 0.981939
vt 0.329444 0.971515
vt 0.805002 0.773982
vt 0.336007 0.970047
vt 0.805002 0.981939
vt 0.336837 0.969272
vt 0.792004 0.773982
vt 0.342820 0.966405
vt 0.792004 0.981939
vt 0.343650 0.965630
vt 0.779007 0.773982
vt 0.348792 0.961504
vt 0.779007 0.981939
vt 0.349622 0.960729
vt 0.766010 0.773982
vt 0.353694 0.955532
vt 0.766010 0.981939
vt 0.354524 0.954757
vt 0.753012 0.773982
vt 0.357335 0.948718
vt 0.753012 0.981939
vt 0.358166 0.947943
vt 0.740015 0.773982
vt 0.359578 0.941325
vt 0.740015 0.981939
vt 0.360408 0.940550
vt 0.727018 0.773982
vt 0.360335 0.933636
vt 0.727018 0.981939
vt 0.361166 0.932861
vt 0.714020 0.773982
vt 0.359578 0.925948
vt 0.714020 0.981939
vt 0.360408 0.925173
vt 0.701023 0.773982
vt 0.357335 0.918555
vt 0.701023 0.981939
vt 0.358166 0.917780
vt 0.688026 0.773982
vt 0.353694 0.911741
vt 0.688026 0.981939
vt 0.354524 0.910966
vt 0.675028 0.773982
vt 0.348792 0.905769
vt 0.675028 0.981939
vt 0.349622 0.904994
vt 0.662031 0.773982
vt 0.342820 0.900868
vt 0.662031 0.981939
vt 0.343650 0.900093
vt 0.649034 0.773982
vt 0.336007 0.897226
vt 0.649034 0.981939
vt 0.336837 0.896451
vt 0.636036 0.773982
vt 0.328613 0.894983
vt 0.636036 0.981939
vt 0.329444 0.894208
vt 0.623039 0.773982
vt 0.320925 0.894226
vt 0.623039 0.981939
vt 0.321755 0.893451
vt 0.610042 0.773982
vt 0.313236 0.894983
vt 0.610042 0.981939
vt 0.314066 0.894208
vt 0.597044 0.773982
vt 0.305843 0.897226
vt 0.597044 0.981939
vt 0.306673 0.896451
vt 0.584047 0.773982
vt 0.299029 0.900868
vt 0.584047 0.981939
vt 0.299860 0.900093
vt 0.571050 0.773982
vt 0.293057 0.905769
vt 0.571050 0.981939
vt 0.293887 0.904994
vt 0.558053 0.773982
vt 0.288156 0.911741
vt 0.558053 0.981939
vt 0.288986 0.910966
vt 0.545055 0.773982
vt 0.284514 0.918555
vt 0.545055 0.981939
vt 0.285344 0.917780
vt 0.532058 0.773982
vt 0.282272 0.925948
vt 0.532058 0.981939
vt 0.283102 0.925173
vt 0.519061 0.773982
vt 0.281514 0.933636
vt 0.519061 0.981939
vt 0.282344 0.932861
vt 0.506063 0.773982
vt 0.282272 0.941325
vt 0.506063 0.981939
vt 0.283102 0.940550
vt 0.493066 0.773982
vt 0.284514 0.948718
vt 0.493066 0.981939
vt 0.285344 0.947943
vt 0.480069 0.773982
vt 0.288156 0.955532
vt 0.480069 0.981939
vt 0.288986 0.954757
vt 0.467071 0.773982
vt 0.293057 0.961504
vt 0.467071 0.981939
vt 0.293887 0.960729
vt 0.454074 0.773982
vt 0.299029 0.966405
vt 0.454074 0.981939
vt 0.299860 0.965630
vt 0.441077 0.773982
vt 0.305843 0.970047
vt 0.306673 0.969272
vt 0.441077 0.981939
vt 0.428079 0.773982
vt 0.313236 0.972290
vt 0.314066 0.971515
vt 0.428079 0.981939
s 1
f 1/1/1 2/4/1 4/9/2 3/7/2
f 3/7/2 4/9/2 6/13/3 5/11/3
f 5/11/3 6/13/3 8/17/4 7/15/4
f 7/15/4 8/17/4 10/21/5 9/19/5
f 9/19/5 10/21/5 12/25/6 11/23/6
f 11/23/6 12/25/6 14/29/7 13/27/7
f 13/27/7 14/29/7 16/33/8 15/31/8
f 15/31/8 16/33/8 18/37/9 17/35/9
f 17/35/9 18/37/9 20/41/10 19/39/10
f 19/39/10 20/41/10 22/45/11 21/43/11
f 21/43/11 22/45/11 24/49/12 23/47/12
f 23/47/12 24/49/12 26/53/13 25/51/13
f 25/51/13 26/53/13 28/57/14 27/55/14
f 27/55/14 28/57/14 30/61/15 29/59/15
f 29/59/15 30/61/15 32/65/16 31/63/16
f 31/63/16 32/65/16 34/69/17 33/67/17
f 33/67/17 34/69/17 36/73/18 35/71/18
f 35/71/18 36/73/18 38/77/19 37/75/19
f 37/75/19 38/77/19 40/81/20 39/79/20
f 39/79/20 40/81/20 42/85/21 41/83/21
f 41/83/21 42/85/21 44/89/22 43/87/22
f 43/87/22 44/89/22 46/93/23 45/91/23
f 45/91/23 46/93/23 48/97/24 47/95/24
f 47/95/24 48/97/24 50/101/25 49/99/25
f 49/99/25 50/101/25 52/105/26 51/103/26
f 51/103/26 52/105/26 54/109/27 53/107/27
f 53/107/27 54/109/27 56/113/28 55/111/28
f 55/111/28 56/113/28 58/117/29 57/115/29
f 57/115/29 58/117/29 60/121/30 59/119/30
f 59/119/30 60/121/30 62/126/31 61/123/31
f 4/10/32 2/5/32 64/129/32 62/125/32 60/122/32 58/118/32 56/114/32 54/110/32 52/106/32 50/102/32 48/98/32 46/94/32 44/90/32 42/86/32 40/82/32 38/78/32 36/74/32 34/70/32 32/66/32 30/62/32 28/58/32 26/54/32 24/50/32 22/46/32 20/42/32 18/38/32 16/34/32 14/30/32 12/26/32 10/22/32 8/18/32 6/14/32
f 61/123/31 62/126/31 64/130/33 63/127/33
f 63/127/33 64/130/33 2/6/1 1/2/1
f 1/3/34 3/8/34 5/12/34 7/16/34 9/20/34 11/24/34 13/28/34 15/32/34 17/36/34 19/40/34 21/44/34 23/48/34 25/52/34 27/56/34 29/60/34 31/64/34 33/68/34 35/72/34 37/76/34 39/80/34 41/84/34 43/88/34 45/92/34 47/96/34 49/100/34 51/104/34 53/108/34 55/112/34 57/116/34 59/120/34 61/124/34 63/128/34
o Cube.002
v -0.020978 0.091425 0.132400
v -0.020978 0.106102 0.136456
v -0.035328 0.101414 0.026456
v -0.035328 0.132331 0.026456
v 0.020632 0.091425 0.132400
v 0.020632 0.106102 0.136456
v 0.035328 0.101414 0.026456
v 0.035328 0.132331 0.026456
v -0.033600 0.101414 0.063123
v -0.029852 0.098502 0.099789
v -0.029852 0.121371 0.099789
v -0.033600 0.129447 0.063123
v 0.029506 0.098502 0.099789
v 0.033255 0.101414 0.063123
v 0.035328 0.129447 0.063123
v 0.029506 0.121371 0.099789
v -0.026955 0.121908 0.018498
v -0.026955 0.101414 0.018498
v 0.026955 0.101414 0.018498
v 0.026955 0.121908 0.018498
v -0.008533 0.121908 -0.028368
v -0.026955 0.121908 0.000312
v -0.021559 0.121908 -0.019968
v -0.026955 0.101414 0.000312
v -0.008533 0.101414 -0.028368
v -0.021559 0.101414 -0.019968
v 0.008533 0.101414 -0.028368
v 0.026955 0.101414 0.000312
v 0.021559 0.101414 -0.019968
v 0.026955 0.121908 0.000312
v 0.008533 0.121908 -0.028368
v 0.021559 0.121908 -0.019968
vn -0.9971 -0.0000 0.0765
vn -0.9979 -0.0000 0.0651
vn -0.9989 -0.0000 0.0471
vn -0.6889 -0.0000 -0.7249
vn 0.9801 -0.0315 0.1962
vn 0.9882 -0.0373 0.1486
vn 0.9704 -0.0260 0.2402
vn -0.0000 -0.2664 0.9639
vn -0.0000 -0.9916 -0.1297
vn -0.0000 -0.9773 -0.2121
vn -0.0000 0.9605 0.2784
vn -0.0000 0.9600 0.2799
vn -0.0000 0.9232 0.3844
vn -0.0000 0.9969 0.0784
vn -0.0000 0.9906 0.1366
vn -0.0000 0.9906 0.1365
vn -0.0000 -1.0000 -0.0000
vn -0.0000 -0.9994 -0.0358
vn -0.0000 -0.9994 -0.0360
vn 0.9990 -0.0351 0.0269
vn 0.9976 -0.0369 0.0587
vn 0.9962 -0.0380 0.0789
vn -0.9704 -0.0260 0.2402
vn -0.9913 -0.0056 0.1315
vn -0.9820 -0.0161 0.1881
vn -1.0000 -0.0000 -0.0000
vn -0.9919 -0.0000 -0.1267
vn 0.6889 -0.0000 -0.7249
vn -0.0000 0.6068 -0.7948
vn 1.0000 -0.0000 -0.0000
vn 0.9919 -0.0000 -0.1267
vn -0.0000 1.0000 -0.0000
vn -0.2958 -0.0000 -0.9552
vn -0.8414 -0.0000 -0.5404
vn 0.8414 -0.0000 -0.5404
vn 0.2958 -0.0000 -0.9552
vt 0.883730 0.623474
vt 0.885686 0.648149
vt 0.852930 0.973909
vt 0.883730 0.644212
vt 0.852930 0.973909
vt 0.852930 0.973909
vt 0.865167 0.745452
vt 0.851303 0.971943
vt 0.852930 0.973909
vt 0.852930 0.973909
vt 0.946525 0.623474
vt 0.945182 0.648149
vt 0.946525 0.644212
vt 0.852930 0.973909
vt 0.966195 0.745452
vt 0.852930 0.973909
vt 0.851303 0.971943
vt 0.852930 0.973909
vt 0.867639 0.711776
vt 0.852930 0.973909
vt 0.872998 0.678100
vt 0.852930 0.973909
vt 0.852930 0.973909
vt 0.852930 0.973909
vt 0.957871 0.678100
vt 0.852930 0.973909
vt 0.963230 0.711776
vt 0.852930 0.973909
vt 0.852930 0.973909
vt 0.852930 0.973909
vt 0.852930 0.973909
vt 0.851303 0.971943
vt 0.852930 0.973909
vt 0.851303 0.971943
vt 0.852930 0.973909
vt 0.852930 0.973909
vt 0.852930 0.973909
vt 0.852930 0.973909
vt 0.852930 0.973909
vt 0.852930 0.973909
vt 0.852930 0.973909
vt 0.852930 0.973909
vt 0.852930 0.973909
vt 0.852930 0.973909
vt 0.852930 0.973909
vt 0.852930 0.973909
vt 0.852930 0.973909
vt 0.852930 0.973909
s 1
f 73/150/35 76/154/36 68/139/37 67/136/37
f 67/136/38 68/139/38 81/161/38 82/163/38
f 77/156/39 80/160/40 70/144/41 69/140/41
f 69/141/42 70/143/42 66/134/42 65/131/42
f 74/151/43 77/155/43 69/142/44 65/132/44
f 80/160/45 75/153/46 66/135/47 70/144/47
f 72/148/48 68/139/48 76/154/49 79/159/50
f 79/159/50 76/154/49 75/153/46 80/160/45
f 67/137/51 71/145/51 78/157/52 73/149/53
f 73/149/53 78/157/52 77/155/43 74/151/43
f 71/146/54 72/148/54 79/159/55 78/158/56
f 78/158/56 79/159/55 80/160/40 77/156/39
f 65/133/57 66/135/57 75/153/58 74/152/59
f 74/152/59 75/153/58 76/154/36 73/150/35
f 82/163/60 81/161/60 86/168/61 88/170/61
f 72/148/62 71/146/62 83/165/62 84/166/62
f 71/147/51 67/138/51 82/162/51 83/164/51
f 68/139/63 72/148/63 84/166/63 81/161/63
f 83/165/51 82/163/51 88/170/51 90/172/51 89/171/51 91/173/51 93/175/51 92/174/51
f 84/166/64 83/165/64 92/174/65 94/176/65
f 81/161/66 84/166/66 94/176/66 96/178/66 95/177/66 85/167/66 87/169/66 86/168/66
f 85/167/67 89/171/67 90/172/68 87/169/68
f 87/169/68 90/172/68 88/170/61 86/168/61
f 94/176/65 92/174/65 93/175/69 96/178/69
f 96/178/69 93/175/69 91/173/70 95/177/70
f 89/171/67 85/167/67 95/177/70 91/173/70
