# Blender 3.3.0
# www.blender.org
o Hopper
v -0.397551 0.025241 -0.368916
v -0.400909 0.166226 -0.368916
v -0.397551 0.025241 -0.413678
v -0.400909 0.166226 -0.413678
v 0.402317 0.026610 -0.368916
v 0.398958 0.167595 -0.368916
v 0.402317 0.026610 -0.413678
v 0.398958 0.167595 -0.413678
v -0.396123 0.189636 -0.368916
v -0.402166 0.330531 -0.368916
v -0.396123 0.189636 -0.413678
v -0.402166 0.330531 -0.413678
v 0.403574 0.206236 -0.368916
v 0.397531 0.347131 -0.368916
v 0.403574 0.206236 -0.413678
v 0.397531 0.347131 -0.413678
v -0.397297 0.350628 -0.368916
v -0.401153 0.491600 -0.368916
v -0.397297 0.350628 -0.413678
v -0.401153 0.491600 -0.413678
v 0.402561 0.354823 -0.368916
v 0.398704 0.495795 -0.368916
v 0.402561 0.354823 -0.413678
v 0.398704 0.495795 -0.413678
v -0.397551 0.025241 0.413678
v -0.400909 0.166226 0.413678
v -0.397551 0.025241 0.368916
v -0.400909 0.166226 0.368916
v 0.402317 0.026610 0.413678
v 0.398958 0.167595 0.413678
v 0.402317 0.026610 0.368916
v 0.398958 0.167595 0.368916
v -0.396123 0.189636 0.413678
v -0.402166 0.330531 0.413678
v -0.396123 0.189636 0.368916
v -0.402166 0.330531 0.368916
v 0.403574 0.206236 0.413678
v 0.397531 0.347131 0.413678
v 0.403574 0.206236 0.368916
v 0.397531 0.347131 0.368916
v -0.397297 0.350628 0.413678
v -0.401153 0.491600 0.413678
v -0.397297 0.350628 0.368916
v -0.401153 0.491600 0.368916
v 0.402561 0.354823 0.413678
v 0.398704 0.495795 0.413678
v 0.402561 0.354823 0.368916
v 0.398704 0.495795 0.368916
v -0.402850 0.025241 0.401362
v -0.402850 0.166226 0.404721
v -0.447612 0.025241 0.401362
v -0.447612 0.166226 0.404721
v -0.402850 0.026610 -0.398506
v -0.402850 0.167595 -0.395147
v -0.447612 0.026610 -0.398506
v -0.447612 0.167595 -0.395147
v -0.402850 0.189636 0.399935
v -0.402850 0.330531 0.405977
v -0.447612 0.189636 0.399935
v -0.447612 0.330531 0.405977
v -0.402850 0.206236 -0.399762
v -0.402850 0.347131 -0.393719
v -0.447612 0.206236 -0.399762
v -0.447612 0.347131 -0.393719
v -0.402850 0.350628 0.401108
v -0.402850 0.491600 0.404965
v -0.447612 0.350628 0.401108
v -0.447612 0.491600 0.404965
v -0.402850 0.354823 -0.398750
v -0.402850 0.495795 -0.394893
v -0.447612 0.354823 -0.398750
v -0.447612 0.495795 -0.394893
v 0.447612 0.025241 0.401362
v 0.447612 0.166226 0.404721
v 0.402850 0.025241 0.401362
v 0.402850 0.166226 0.404721
v 0.447612 0.026610 -0.398506
v 0.447612 0.167595 -0.395147
v 0.402850 0.026610 -0.398506
v 0.402850 0.167595 -0.395147
v 0.447612 0.189636 0.399935
v 0.447612 0.330531 0.405977
v 0.402850 0.189636 0.399935
v 0.402850 0.330531 0.405977
v 0.447612 0.206236 -0.399762
v 0.447612 0.347131 -0.393719
v 0.402850 0.206236 -0.399762
v 0.402850 0.347131 -0.393719
v 0.447612 0.350628 0.401108
v 0.447612 0.491600 0.404965
v 0.402850 0.350628 0.401108
v 0.402850 0.491600 0.404965
v 0.447612 0.354823 -0.398750
v 0.447612 0.495795 -0.394893
v 0.402850 0.354823 -0.398750
v 0.402850 0.495795 -0.394893
v -0.380025 -0.020384 0.380025
v -0.380025 0.020384 0.380025
v -0.380025 -0.020384 -0.380025
v -0.380025 0.020384 -0.380025
v 0.380025 -0.020384 0.380025
v 0.380025 0.020384 0.380025
v 0.380025 -0.020384 -0.380025
v 0.380025 0.020384 -0.380025
v -0.402073 0.009756 0.370854
v -0.402073 0.475425 0.370854
v -0.402073 0.009756 0.313776
v -0.402073 0.475425 0.313776
v -0.344796 0.009756 0.370854
v -0.344796 0.475425 0.370854
v -0.344796 0.009756 0.313776
v -0.344796 0.475425 0.313776
v 0.346244 0.009756 0.370854
v 0.346244 0.475425 0.370854
v 0.346244 0.009756 0.313776
v 0.346244 0.475425 0.313776
v 0.403521 0.009756 0.370854
v 0.403521 0.475425 0.370854
v 0.403521 0.009756 0.313776
v 0.403521 0.475425 0.313776
v 0.346244 0.009756 -0.312329
v 0.346244 0.475425 -0.312329
v 0.346244 0.009756 -0.369407
v 0.346244 0.475425 -0.369407
v 0.403521 0.009756 -0.312329
v 0.403521 0.475425 -0.312329
v 0.403521 0.009756 -0.369407
v 0.403521 0.475425 -0.369407
v -0.402073 0.009756 -0.312329
v -0.402073 0.475425 -0.312329
v -0.402073 0.009756 -0.369407
v -0.402073 0.475425 -0.369407
v -0.344796 0.009756 -0.312329
v -0.344796 0.475425 -0.312329
v -0.344796 0.009756 -0.369407
v -0.344796 0.475425 -0.369407
vn -0.9997 -0.0238 -0.0000
vn -0.0000 -0.0000 -1.0000
vn 0.9997 0.0238 -0.0000
vn -0.0000 -0.0000 1.0000
vn 0.0017 -1.0000 -0.0000
vn -0.0017 1.0000 -0.0000
vn -0.9991 -0.0428 -0.0000
vn 0.9991 0.0428 -0.0000
vn 0.0208 -0.9998 -0.0000
vn -0.0208 0.9998 -0.0000
vn -0.9996 -0.0273 -0.0000
vn 0.9996 0.0273 -0.0000
vn 0.0052 -1.0000 -0.0000
vn -0.0052 1.0000 -0.0000
vn -0.0000 -0.0238 0.9997
vn -1.0000 -0.0000 -0.0000
vn -0.0000 0.0238 -0.9997
vn 1.0000 -0.0000 -0.0000
vn -0.0000 -1.0000 -0.0017
vn -0.0000 1.0000 0.0017
vn -0.0000 -0.0428 0.9991
vn -0.0000 0.0428 -0.9991
vn -0.0000 -0.9998 -0.0208
vn -0.0000 0.9998 0.0208
vn -0.0000 -0.0273 0.9996
vn -0.0000 0.0273 -0.9996
vn -0.0000 -1.0000 -0.0052
vn -0.0000 1.0000 0.0052
vn -0.0000 -1.0000 -0.0000
vn -0.0000 1.0000 -0.0000
vt 0.073447 0.003109
vt 0.164976 0.974569
vt 0.002968 0.003129
vt 0.164976 0.974569
vt 0.073448 0.003109
vt 0.164976 0.974569
vt 0.143927 0.003128
vt 0.164976 0.974569
vt 0.073447 0.996871
vt 0.164976 0.974569
vt 0.002968 0.996891
vt 0.164976 0.974569
vt 0.073448 0.996872
vt 0.164976 0.974569
vt 0.143927 0.996891
vt 0.164976 0.974569
vt 0.073447 0.003109
vt 0.164976 0.974569
vt 0.002968 0.003129
vt 0.164976 0.974569
vt 0.073448 0.003109
vt 0.164976 0.974569
vt 0.143927 0.003128
vt 0.164976 0.974569
vt 0.073447 0.996871
vt 0.164976 0.974569
vt 0.002968 0.996891
vt 0.164976 0.974569
vt 0.073448 0.996872
vt 0.164976 0.974569
vt 0.143927 0.996891
vt 0.164976 0.974569
vt 0.073447 0.003109
vt 0.164976 0.974569
vt 0.002968 0.003129
vt 0.164976 0.974569
vt 0.073448 0.003109
vt 0.164976 0.974569
vt 0.143927 0.003128
vt 0.164976 0.974569
vt 0.073447 0.996871
vt 0.164976 0.974569
vt 0.002968 0.996891
vt 0.164976 0.974569
vt 0.073448 0.996872
vt 0.164976 0.974569
vt 0.143927 0.996891
vt 0.164976 0.974569
vt 0.073447 0.003109
vt 0.164976 0.974569
vt 0.002968 0.003129
vt 0.164976 0.974569
vt 0.073448 0.003109
vt 0.164976 0.974569
vt 0.143927 0.003128
vt 0.164976 0.974569
vt 0.073447 0.996871
vt 0.164976 0.974569
vt 0.002968 0.996891
vt 0.164976 0.974569
vt 0.073448 0.996872
vt 0.164976 0.974569
vt 0.143927 0.996891
vt 0.164976 0.974569
vt 0.073447 0.003109
vt 0.164976 0.974569
vt 0.002968 0.003129
vt 0.164976 0.974569
vt 0.073448 0.003109
vt 0.164976 0.974569
vt 0.143927 0.003128
vt 0.164976 0.974569
vt 0.073447 0.996871
vt 0.164976 0.974569
vt 0.002968 0.996891
vt 0.164976 0.974569
vt 0.073448 0.996872
vt 0.164976 0.974569
vt 0.143927 0.996891
vt 0.164976 0.974569
vt 0.073447 0.003109
vt 0.164976 0.974569
vt 0.002968 0.003129
vt 0.164976 0.974569
vt 0.073448 0.003109
vt 0.164976 0.974569
vt 0.143927 0.003128
vt 0.164976 0.974569
vt 0.073447 0.996871
vt 0.164976 0.974569
vt 0.002968 0.996891
vt 0.164976 0.974569
vt 0.073448 0.996872
vt 0.164976 0.974569
vt 0.143927 0.996891
vt 0.164976 0.974569
vt 0.073447 0.003109
vt 0.164976 0.974569
vt 0.002968 0.003129
vt 0.164976 0.974569
vt 0.073448 0.003109
vt 0.164976 0.974569
vt 0.143927 0.003128
vt 0.164976 0.974569
vt 0.073447 0.996871
vt 0.164976 0.974569
vt 0.002968 0.996891
vt 0.164976 0.974569
vt 0.073448 0.996872
vt 0.164976 0.974569
vt 0.143927 0.996891
vt 0.164976 0.974569
vt 0.073447 0.003109
vt 0.164976 0.974569
vt 0.002968 0.003129
vt 0.164976 0.974569
vt 0.073448 0.003109
vt 0.164976 0.974569
vt 0.143927 0.003128
vt 0.164976 0.974569
vt 0.073447 0.996871
vt 0.164976 0.974569
vt 0.002968 0.996891
vt 0.164976 0.974569
vt 0.073448 0.996872
vt 0.164976 0.974569
vt 0.143927 0.996891
vt 0.164976 0.974569
vt 0.073447 0.003109
vt 0.164976 0.974569
vt 0.002968 0.003129
vt 0.164976 0.974569
vt 0.073448 0.003109
vt 0.164976 0.974569
vt 0.143927 0.003128
vt 0.164976 0.974569
vt 0.073447 0.996871
vt 0.164976 0.974569
vt 0.002968 0.996891
vt 0.164976 0.974569
vt 0.073448 0.996872
vt 0.164976 0.974569
vt 0.143927 0.996891
vt 0.164976 0.974569
vt 0.073447 0.003109
vt 0.164976 0.974569
vt 0.002968 0.003129
vt 0.164976 0.974569
vt 0.073448 0.003109
vt 0.164976 0.974569
vt 0.143927 0.003128
vt 0.164976 0.974569
vt 0.073447 0.996871
vt 0.164976 0.974569
vt 0.002968 0.996891
vt 0.164976 0.974569
vt 0.073448 0.996872
vt 0.164976 0.974569
vt 0.143927 0.996891
vt 0.164976 0.974569
vt 0.073447 0.003109
vt 0.164976 0.974569
vt 0.002968 0.003129
vt 0.164976 0.974569
vt 0.073448 0.003109
vt 0.164976 0.974569
vt 0.143927 0.003128
vt 0.164976 0.974569
vt 0.073447 0.996871
vt 0.164976 0.974569
vt 0.002968 0.996891
vt 0.164976 0.974569
vt 0.073448 0.996872
vt 0.164976 0.974569
vt 0.143927 0.996891
vt 0.164976 0.974569
vt 0.073447 0.003109
vt 0.164976 0.974569
vt 0.002968 0.003129
vt 0.164976 0.974569
vt 0.073448 0.003109
vt 0.164976 0.974569
vt 0.143927 0.003128
vt 0.164976 0.974569
vt 0.073447 0.996871
vt 0.164976 0.974569
vt 0.002968 0.996891
vt 0.164976 0.974569
vt 0.073448 0.996872
vt 0.164976 0.974569
vt 0.143927 0.996891
vt 0.164976 0.974569
vt 0.169808 0.975910
vt 0.169808 0.975910
vt 0.169808 0.975910
vt 0.169808 0.975910
vt 0.169808 0.975910
vt 0.169808 0.975910
vt 0.169808 0.975910
vt 0.169808 0.975910
vt 0.172909 0.979011
vt 0.172909 0.979011
vt 0.172909 0.979011
vt 0.172909 0.979011
vt 0.172909 0.979011
vt 0.172909 0.979011
vt 0.172909 0.979011
vt 0.172909 0.979011
vt 0.172909 0.979011
vt 0.172909 0.979011
vt 0.172909 0.979011
vt 0.172909 0.979011
vt 0.172909 0.979011
vt 0.172909 0.979011
vt 0.172909 0.979011
vt 0.172909 0.979011
vt 0.172909 0.979011
vt 0.172909 0.979011
vt 0.172909 0.979011
vt 0.172909 0.979011
vt 0.172909 0.979011
vt 0.172909 0.979011
vt 0.172909 0.979011
vt 0.172909 0.979011
vt 0.172909 0.979011
vt 0.172909 0.979011
vt 0.172909 0.979011
vt 0.172909 0.979011
vt 0.172909 0.979011
vt 0.172909 0.979011
vt 0.172909 0.979011
vt 0.172909 0.979011
s 0
f 1/2/1 2/4/1 4/8/1 3/6/1
f 3/5/2 4/7/2 8/15/2 7/13/2
f 7/14/3 8/16/3 6/12/3 5/10/3
f 5/9/4 6/11/4 2/3/4 1/1/4
f 3/6/5 7/14/5 5/10/5 1/2/5
f 8/16/6 4/8/6 2/4/6 6/12/6
f 9/18/7 10/20/7 12/24/7 11/22/7
f 11/21/2 12/23/2 16/31/2 15/29/2
f 15/30/8 16/32/8 14/28/8 13/26/8
f 13/25/4 14/27/4 10/19/4 9/17/4
f 11/22/9 15/30/9 13/26/9 9/18/9
f 16/32/10 12/24/10 10/20/10 14/28/10
f 17/34/11 18/36/11 20/40/11 19/38/11
f 19/37/2 20/39/2 24/47/2 23/45/2
f 23/46/12 24/48/12 22/44/12 21/42/12
f 21/41/4 22/43/4 18/35/4 17/33/4
f 19/38/13 23/46/13 21/42/13 17/34/13
f 24/48/14 20/40/14 18/36/14 22/44/14
f 25/50/1 26/52/1 28/56/1 27/54/1
f 27/53/2 28/55/2 32/63/2 31/61/2
f 31/62/3 32/64/3 30/60/3 29/58/3
f 29/57/4 30/59/4 26/51/4 25/49/4
f 27/54/5 31/62/5 29/58/5 25/50/5
f 32/64/6 28/56/6 26/52/6 30/60/6
f 33/66/7 34/68/7 36/72/7 35/70/7
f 35/69/2 36/71/2 40/79/2 39/77/2
f 39/78/8 40/80/8 38/76/8 37/74/8
f 37/73/4 38/75/4 34/67/4 33/65/4
f 35/70/9 39/78/9 37/74/9 33/66/9
f 40/80/10 36/72/10 34/68/10 38/76/10
f 41/82/11 42/84/11 44/88/11 43/86/11
f 43/85/2 44/87/2 48/95/2 47/93/2
f 47/94/12 48/96/12 46/92/12 45/90/12
f 45/89/4 46/91/4 42/83/4 41/81/4
f 43/86/13 47/94/13 45/90/13 41/82/13
f 48/96/14 44/88/14 42/84/14 46/92/14
f 49/98/15 50/100/15 52/104/15 51/102/15
f 51/101/16 52/103/16 56/111/16 55/109/16
f 55/110/17 56/112/17 54/108/17 53/106/17
f 53/105/18 54/107/18 50/99/18 49/97/18
f 51/102/19 55/110/19 53/106/19 49/98/19
f 56/112/20 52/104/20 50/100/20 54/108/20
f 57/114/21 58/116/21 60/120/21 59/118/21
f 59/117/16 60/119/16 64/127/16 63/125/16
f 63/126/22 64/128/22 62/124/22 61/122/22
f 61/121/18 62/123/18 58/115/18 57/113/18
f 59/118/23 63/126/23 61/122/23 57/114/23
f 64/128/24 60/120/24 58/116/24 62/124/24
f 65/130/25 66/132/25 68/136/25 67/134/25
f 67/133/16 68/135/16 72/143/16 71/141/16
f 71/142/26 72/144/26 70/140/26 69/138/26
f 69/137/18 70/139/18 66/131/18 65/129/18
f 67/134/27 71/142/27 69/138/27 65/130/27
f 72/144/28 68/136/28 66/132/28 70/140/28
f 73/146/15 74/148/15 76/152/15 75/150/15
f 75/149/16 76/151/16 80/159/16 79/157/16
f 79/158/17 80/160/17 78/156/17 77/154/17
f 77/153/18 78/155/18 74/147/18 73/145/18
f 75/150/19 79/158/19 77/154/19 73/146/19
f 80/160/20 76/152/20 74/148/20 78/156/20
f 81/162/21 82/164/21 84/168/21 83/166/21
f 83/165/16 84/167/16 88/175/16 87/173/16
f 87/174/22 88/176/22 86/172/22 85/170/22
f 85/169/18 86/171/18 82/163/18 81/161/18
f 83/166/23 87/174/23 85/170/23 81/162/23
f 88/176/24 84/168/24 82/164/24 86/172/24
f 89/178/25 90/180/25 92/184/25 91/182/25
f 91/181/16 92/183/16 96/191/16 95/189/16
f 95/190/26 96/192/26 94/188/26 93/186/26
f 93/185/18 94/187/18 90/179/18 89/177/18
f 91/182/27 95/190/27 93/186/27 89/178/27
f 96/192/28 92/184/28 90/180/28 94/188/28
f 97/193/16 98/194/16 100/196/16 99/195/16
f 99/195/2 100/196/2 104/200/2 103/199/2
f 103/199/18 104/200/18 102/198/18 101/197/18
f 101/197/4 102/198/4 98/194/4 97/193/4
f 99/195/29 103/199/29 101/197/29 97/193/29
f 104/200/30 100/196/30 98/194/30 102/198/30
f 105/201/16 106/202/16 108/204/16 107/203/16
f 107/203/2 108/204/2 112/208/2 111/207/2
f 111/207/18 112/208/18 110/206/18 109/205/18
f 109/205/4 110/206/4 106/202/4 105/201/4
f 107/203/29 111/207/29 109/205/29 105/201/29
f 112/208/30 108/204/30 106/202/30 110/206/30
f 113/209/16 114/210/16 116/212/16 115/211/16
f 115/211/2 116/212/2 120/216/2 119/215/2
f 119/215/18 120/216/18 118/214/18 117/213/18
f 117/213/4 118/214/4 114/210/4 113/209/4
f 115/211/29 119/215/29 117/213/29 113/209/29
f 120/216/30 116/212/30 114/210/30 118/214/30
f 121/217/16 122/218/16 124/220/16 123/219/16
f 123/219/2 124/220/2 128/224/2 127/223/2
f 127/223/18 128/224/18 126/222/18 125/221/18
f 125/221/4 126/222/4 122/218/4 121/217/4
f 123/219/29 127/223/29 125/221/29 121/217/29
f 128/224/30 124/220/30 122/218/30 126/222/30
f 129/225/16 130/226/16 132/228/16 131/227/16
f 131/227/2 132/228/2 136/232/2 135/231/2
f 135/231/18 136/232/18 134/230/18 133/229/18
f 133/229/4 134/230/4 130/226/4 129/225/4
f 131/227/29 135/231/29 133/229/29 129/225/29
f 136/232/30 132/228/30 130/226/30 134/230/30
