# Blender 3.3.0
# www.blender.org
o PotatoMini.002
v -0.004792 0.044879 0.004792
v -0.001779 0.153683 0.001779
v -0.004792 0.044879 -0.004792
v -0.001779 0.153683 -0.001779
v 0.004792 0.044879 0.004792
v 0.001779 0.153683 0.001779
v 0.004792 0.044879 -0.004792
v 0.001779 0.153683 -0.001779
v 0.000000 0.160702 0.000000
vn -0.9996 0.0277 -0.0000
vn -0.0000 0.0277 -0.9996
vn 0.9996 0.0277 -0.0000
vn -0.0000 0.0277 0.9996
vn -0.0000 -1.0000 -0.0000
vn -0.9694 0.2457 -0.0000
vn -0.0000 0.2457 0.9694
vn -0.0000 0.2457 -0.9694
vn 0.9694 0.2457 -0.0000
vt 0.384927 0.917699
vt 0.425155 0.917699
vt 0.340755 0.281987
vt 0.397575 0.463640
vt 0.412507 0.463640
vt 0.425155 0.917699
vt 0.384927 0.917699
vt 0.340755 0.281987
vt 0.412507 0.463640
vt 0.397575 0.463640
vt 0.425155 0.917699
vt 0.384927 0.917699
vt 0.340755 0.281987
vt 0.397575 0.463640
vt 0.412507 0.463640
vt 0.425155 0.917699
vt 0.384927 0.917699
vt 0.340755 0.281987
vt 0.412507 0.463640
vt 0.397575 0.463640
vt 0.405041 0.433433
s 0
f 1/1/1 2/4/1 4/9/1 3/6/1
f 3/7/2 4/10/2 8/19/2 7/16/2
f 7/17/3 8/20/3 6/15/3 5/11/3
f 5/12/4 6/14/4 2/5/4 1/2/4
f 3/8/5 7/18/5 5/13/5 1/3/5
f 4/9/6 2/4/6 9/21/6
f 2/5/7 6/14/7 9/21/7
f 8/19/8 4/10/8 9/21/8
f 6/15/9 8/20/9 9/21/9
