# Blender 3.3.0
# www.blender.org
o PlotEmpty
v -0.409578 -0.022285 -0.431692
v -0.476502 0.001487 0.440040
v -0.489499 -0.072581 0.490837
v -0.479220 -0.072581 -0.480662
v 0.494015 -0.072581 -0.492929
v 0.459647 -0.011786 0.457077
v 0.503562 -0.072581 0.504023
v 0.447529 -0.030519 -0.460691
v -0.318493 -0.004311 -0.391161
v -0.175947 0.026575 -0.438317
v -0.014339 0.044984 -0.459513
v 0.165242 0.028775 -0.467966
v 0.322231 0.001817 -0.439222
v -0.357475 -0.072581 -0.534795
v -0.198370 -0.072581 -0.587067
v -0.004499 -0.072581 -0.613859
v 0.194342 -0.072581 -0.597044
v 0.363126 -0.072581 -0.548512
v -0.355564 -0.072581 0.568582
v -0.206744 -0.072581 0.604166
v -0.005640 -0.072581 0.634043
v 0.193186 -0.072581 0.629868
v 0.361276 -0.072581 0.582121
v 0.335128 0.012821 0.456125
v 0.167812 0.032252 0.474479
v -0.013403 0.025689 0.474266
v -0.160105 0.034627 0.475099
v -0.328284 0.012166 0.430762
v 0.574272 -0.072581 -0.335057
v 0.628175 -0.072581 -0.128484
v 0.658159 -0.072581 0.102526
v 0.611916 -0.072581 0.328426
v 0.450969 0.005175 0.272742
v 0.480915 0.048633 0.108399
v 0.491169 0.056171 -0.105418
v 0.430446 -0.007380 -0.266766
v -0.422822 0.039995 0.314982
v -0.429260 0.021461 0.120080
v -0.435898 0.002134 -0.096744
v -0.438578 0.006964 -0.363522
v -0.545689 -0.072581 -0.327269
v -0.600263 -0.072581 -0.121889
v -0.617980 -0.072581 0.112959
v -0.571688 -0.072581 0.320961
v 0.333333 -0.055000 0.300000
v 0.333333 -0.055000 0.100000
v 0.333333 -0.055000 -0.100000
v 0.333333 -0.055000 -0.300000
v 0.166667 -0.055000 0.300000
v 0.166667 -0.055000 0.100000
v 0.166667 -0.055000 -0.100000
v 0.166667 -0.055000 -0.300000
v 0.000000 -0.055000 0.300000
v 0.000000 -0.055000 0.100000
v 0.000000 -0.055000 -0.100000
v 0.000000 -0.055000 -0.300000
v -0.166667 -0.055000 0.300000
v -0.166667 -0.055000 0.100000
v -0.166667 -0.055000 -0.100000
v -0.166667 -0.055000 -0.300000
v -0.350727 -0.060878 0.318056
v -0.354940 -0.065875 0.097926
v -0.357740 -0.064654 -0.097546
v -0.348774 -0.070943 -0.310023
v 0.333342 0.055042 -0.300007
v 0.340251 0.079184 -0.097937
v 0.361239 0.071121 0.091056
v 0.338265 0.051516 0.303678
v 0.168632 0.064530 -0.304647
v 0.166667 0.055000 -0.100000
v 0.166667 0.055000 0.100000
v 0.152481 0.079584 0.310304
v 0.000061 0.079307 -0.304285
v 0.000000 0.055000 -0.100000
v -0.002905 0.056815 0.101313
v -0.014454 0.082011 0.296995
v -0.175562 0.083571 -0.306571
v -0.153984 0.039361 -0.118714
v -0.144763 0.046315 0.088843
v -0.169174 0.078788 0.310049
v -0.341004 0.053762 -0.295363
v -0.340903 0.036874 -0.094579
v -0.340511 0.055925 0.086797
v -0.365327 0.058698 0.304673
vn -0.1576 0.8696 -0.4679
vn -0.1626 0.8704 -0.4647
vn -0.2291 0.8657 -0.4452
vn -0.0272 0.8787 -0.4765
vn -0.1741 0.8698 -0.4617
vn -0.3577 0.8390 -0.4100
vn 0.4547 0.8653 -0.2108
vn 0.3304 0.8842 -0.3302
vn 0.3235 0.8834 -0.3389
vn 0.4084 0.8804 -0.2411
vn 0.0357 -0.9992 -0.0179
vn 0.0278 -0.9986 -0.0452
vn 0.0404 -0.9986 -0.0352
vn 0.0391 -0.9992 -0.0094
vn -0.1866 0.7997 0.5707
vn -0.1595 0.8851 0.4373
vn -0.1524 0.8491 0.5058
vn -0.1775 0.7712 0.6114
vn -0.5158 0.8449 -0.1417
vn -0.5027 0.8503 -0.1561
vn 0.3734 0.8443 0.3842
vn 0.3573 0.8751 0.3263
vn 0.2108 0.9021 0.3765
vn 0.1912 0.8126 0.5505
vn 0.0665 0.9084 0.4128
vn 0.0731 0.8385 0.5399
vn -0.0073 0.9029 0.4297
vn -0.0175 0.8292 0.5587
vn -0.0778 0.8943 0.4407
vn -0.1174 0.8219 0.5574
vn -0.0536 -0.9983 -0.0225
vn -0.0472 -0.9978 -0.0466
vn -0.0237 -0.9983 -0.0526
vn -0.0278 -0.9993 -0.0269
vn -0.0042 -0.9985 -0.0547
vn -0.0021 -0.9996 -0.0273
vn 0.0018 -0.9986 -0.0538
vn 0.0009 -0.9996 -0.0269
vn 0.0121 -0.9985 -0.0530
vn 0.0176 -0.9996 -0.0227
vn 0.1865 0.8133 -0.5511
vn 0.2357 0.8917 -0.3863
vn 0.1239 0.8077 -0.5764
vn 0.1127 0.8948 -0.4319
vn -0.0321 0.8043 -0.5933
vn -0.0154 0.9014 -0.4328
vn -0.1756 0.8392 -0.5147
vn -0.1637 0.8790 -0.4478
vn 0.2085 0.9577 -0.1984
vn 0.0564 0.9915 -0.1172
vn 0.0076 0.9979 -0.0644
vn -0.1137 0.9867 -0.1161
vn -0.0496 0.9934 0.1038
vn -0.1758 0.9783 0.1099
vn -0.0373 0.9964 -0.0767
vn -0.1794 0.9808 -0.0768
vn -0.0477 0.9964 0.0698
vn -0.2113 0.9774 0.0082
vn -0.2624 0.9601 0.0966
vn -0.0064 0.9976 0.0682
vn -0.0266 0.9969 -0.0735
vn -0.0211 0.9983 0.0549
vn 0.0405 0.9930 0.1113
vn -0.0127 0.9996 -0.0259
vn -0.0252 0.9995 0.0175
vn 0.1890 0.9714 0.1441
vn 0.1003 0.9930 0.0629
vn 0.0857 0.9943 -0.0638
vn 0.3860 0.9045 0.1813
vn 0.3991 0.9107 0.1063
vn 0.4225 0.8965 -0.1337
vn 0.0257 -0.9986 0.0468
vn 0.0301 -0.9992 0.0274
vn 0.0368 -0.9991 0.0189
vn 0.0332 -0.9992 0.0224
vn 0.0306 -0.9995 0.0033
vn 0.0425 -0.9991 0.0070
vn 0.0249 -0.9997 0.0020
vn 0.0416 -0.9991 0.0032
vn 0.0008 -0.9983 0.0578
vn 0.0004 -0.9996 0.0289
vn -0.0000 -1.0000 -0.0000
vn -0.0057 -0.9982 0.0602
vn -0.0029 -0.9995 0.0301
vn -0.0266 -0.9980 0.0574
vn -0.0305 -0.9991 0.0297
vn -0.0301 -0.9995 0.0031
vn -0.0286 -0.9996 -0.0006
vn -0.0499 -0.9975 0.0494
vn -0.0583 -0.9980 0.0259
vn -0.0602 -0.9982 0.0061
vn -0.0572 -0.9984 -0.0011
vn -0.7218 0.6739 0.1578
vn -0.3867 0.9123 0.1348
vn -0.6127 0.7858 0.0842
vn -0.4205 0.9064 -0.0398
vn -0.4723 0.8814 -0.0127
vn -0.4225 0.9058 -0.0326
vn -0.4610 0.8861 -0.0474
vn 0.0141 -0.9998 0.0127
vn 0.0057 -1.0000 0.0052
vn 0.0247 -0.9997 0.0077
vn 0.0336 -0.9994 0.0026
vn 0.4832 0.8563 0.1825
vn 0.5570 0.8263 0.0839
vn 0.5574 0.8159 -0.1533
vt 0.323860 0.685082
vt 0.320592 0.908333
vt 0.103516 0.643563
vt 0.330180 0.928436
vt 0.346526 0.671759
vt 0.103516 0.643563
vt 0.089687 0.649060
vt 0.103516 0.643563
vt 0.084311 0.895680
vt 0.103516 0.643563
vt 0.067152 0.910822
vt 0.103554 0.661172
vt 0.299308 0.692364
vt 0.262825 0.680229
vt 0.222445 0.674174
vt 0.177767 0.667932
vt 0.136385 0.670486
vt 0.315094 0.652778
vt 0.103516 0.643563
vt 0.274190 0.635146
vt 0.103516 0.643563
vt 0.223809 0.624489
vt 0.103516 0.643563
vt 0.171233 0.625466
vt 0.103516 0.643563
vt 0.125710 0.635617
vt 0.103516 0.643563
vt 0.292013 0.946517
vt 0.103516 0.643563
vt 0.252281 0.954239
vt 0.103516 0.643563
vt 0.198938 0.957984
vt 0.103516 0.643563
vt 0.146815 0.952244
vt 0.103516 0.643563
vt 0.103410 0.935654
vt 0.103516 0.643563
vt 0.116498 0.897637
vt 0.158814 0.904977
vt 0.204387 0.909708
vt 0.241137 0.911243
vt 0.284437 0.905212
vt 0.103516 0.643563
vt 0.064818 0.689305
vt 0.103516 0.643563
vt 0.046509 0.742106
vt 0.103516 0.643563
vt 0.034946 0.801417
vt 0.103516 0.643563
vt 0.042672 0.861406
vt 0.089392 0.848765
vt 0.088998 0.805817
vt 0.091563 0.754744
vt 0.103323 0.711646
vt 0.308738 0.876429
vt 0.317311 0.828064
vt 0.324584 0.772468
vt 0.327228 0.704635
vt 0.361585 0.713934
vt 0.103516 0.643563
vt 0.372006 0.768776
vt 0.103516 0.643563
vt 0.372006 0.830873
vt 0.103516 0.643563
vt 0.355497 0.884362
vt 0.103516 0.643563
vt 0.103516 0.643563
vt 0.103516 0.643563
vt 0.103516 0.643563
vt 0.103516 0.643563
vt 0.103516 0.643563
vt 0.103516 0.643563
vt 0.103516 0.643563
vt 0.103516 0.643563
vt 0.103516 0.643563
vt 0.103516 0.643563
vt 0.103516 0.643563
vt 0.103516 0.643563
vt 0.103516 0.643563
vt 0.103516 0.643563
vt 0.103516 0.643563
vt 0.103516 0.643563
vt 0.103516 0.643563
vt 0.103516 0.643563
vt 0.103516 0.643563
vt 0.103516 0.643563
vt 0.133277 0.708273
vt 0.127841 0.758104
vt 0.119053 0.804161
vt 0.120103 0.857825
vt 0.174306 0.709736
vt 0.171123 0.760707
vt 0.167199 0.810409
vt 0.166814 0.863065
vt 0.216259 0.713067
vt 0.212594 0.763944
vt 0.209373 0.814088
vt 0.208299 0.863236
vt 0.259177 0.715270
vt 0.251446 0.762342
vt 0.244990 0.813713
vt 0.246223 0.869388
vt 0.300028 0.720714
vt 0.298184 0.771507
vt 0.293849 0.817774
vt 0.294672 0.872254
s 1
f 81/103/1 9/13/2 1/1/3 40/58/4
f 9/13/2 14/18/5 4/5/6 1/1/3
f 29/44/7 5/7/8 8/12/9 36/54/10
f 61/83/11 19/29/12 3/3/13 44/66/14
f 19/28/15 28/42/16 2/2/17 3/4/18
f 41/59/19 40/58/20 1/1/3 4/5/6
f 7/11/21 6/9/22 24/38/23 23/36/24
f 23/36/24 24/38/23 25/39/25 22/34/26
f 22/34/26 25/39/25 26/40/27 21/32/28
f 21/32/28 26/40/27 27/41/29 20/30/30
f 20/30/30 27/41/29 28/42/16 19/28/15
f 32/49/31 7/10/32 23/37/33 45/67/34
f 45/67/34 23/37/33 22/35/35 49/71/36
f 49/71/36 22/35/35 21/33/37 53/75/38
f 53/75/38 21/33/37 20/31/39 57/79/40
f 57/79/40 20/31/39 19/29/12 61/83/11
f 8/12/9 5/7/8 18/26/41 13/17/42
f 13/17/42 18/26/41 17/24/43 12/16/44
f 12/16/44 17/24/43 16/22/45 11/15/46
f 11/15/46 16/22/45 15/20/47 10/14/48
f 10/14/48 15/20/47 14/18/5 9/13/2
f 36/54/10 8/12/9 13/17/42 65/87/49
f 65/87/49 13/17/42 12/16/44 69/91/50
f 69/91/50 12/16/44 11/15/46 73/95/51
f 73/95/51 11/15/46 10/14/48 77/99/52
f 77/99/52 10/14/48 9/13/2 81/103/1
f 27/41/29 80/102/53 84/106/54 28/42/16
f 80/102/53 79/101/55 83/105/56 84/106/54
f 79/101/55 78/100/57 82/104/58 83/105/56
f 78/100/57 77/99/52 81/103/59 82/104/58
f 26/40/27 76/98/60 80/102/53 27/41/29
f 76/98/60 75/97/61 79/101/55 80/102/53
f 75/97/61 74/96/62 78/100/57 79/101/55
f 74/96/62 73/95/51 77/99/52 78/100/57
f 25/39/25 72/94/63 76/98/60 26/40/27
f 72/94/63 71/93/64 75/97/61 76/98/60
f 71/93/64 70/92/65 74/96/62 75/97/61
f 70/92/65 69/91/50 73/95/51 74/96/62
f 24/38/23 68/90/66 72/94/63 25/39/25
f 68/90/66 67/89/67 71/93/64 72/94/63
f 67/89/67 66/88/68 70/92/65 71/93/64
f 66/88/68 65/87/49 69/91/50 70/92/65
f 6/9/22 33/51/69 68/90/66 24/38/23
f 33/51/69 34/52/70 67/89/67 68/90/66
f 34/52/70 35/53/71 66/88/68 67/89/67
f 35/53/71 36/54/10 65/87/49 66/88/68
f 15/21/72 60/82/73 64/86/74 14/19/75
f 60/82/73 59/81/76 63/85/77 64/86/74
f 59/81/76 58/80/78 62/84/79 63/85/77
f 58/80/78 57/79/40 61/83/11 62/84/79
f 16/23/80 56/78/81 60/82/73 15/21/72
f 56/78/81 55/77/82 59/81/76 60/82/73
f 55/77/82 54/76/82 58/80/78 59/81/76
f 54/76/82 53/75/38 57/79/40 58/80/78
f 17/25/83 52/74/84 56/78/81 16/23/80
f 52/74/84 51/73/82 55/77/82 56/78/81
f 51/73/82 50/72/82 54/76/82 55/77/82
f 50/72/82 49/71/36 53/75/38 54/76/82
f 18/27/85 48/70/86 52/74/84 17/25/83
f 48/70/86 47/69/87 51/73/82 52/74/84
f 47/69/87 46/68/88 50/72/82 51/73/82
f 46/68/88 45/67/34 49/71/36 50/72/82
f 5/8/89 29/43/90 48/70/86 18/27/85
f 29/43/90 30/45/91 47/69/87 48/70/86
f 30/45/91 31/47/92 46/68/88 47/69/87
f 31/47/92 32/49/31 45/67/34 46/68/88
f 3/4/93 2/2/93 37/55/94 44/65/95
f 44/65/95 37/55/94 38/56/96 43/63/97
f 43/63/97 38/56/96 39/57/98 42/61/99
f 42/61/99 39/57/98 40/58/20 41/59/19
f 14/19/75 64/86/74 41/60/100 4/6/101
f 64/86/74 63/85/77 42/62/102 41/60/100
f 63/85/77 62/84/79 43/64/103 42/62/102
f 62/84/79 61/83/11 44/66/14 43/64/103
f 7/11/21 32/50/104 33/51/69 6/9/22
f 32/50/104 31/48/105 34/52/70 33/51/69
f 31/48/105 30/46/106 35/53/71 34/52/70
f 30/46/106 29/44/7 36/54/10 35/53/71
f 28/42/16 84/106/54 37/55/94 2/2/17
f 84/106/54 83/105/56 38/56/96 37/55/94
f 83/105/56 82/104/58 39/57/98 38/56/96
f 82/104/58 81/103/59 40/58/20 39/57/98
