# Blender 3.3.0
# www.blender.org
o Potato
v -0.110869 -0.107215 0.169027
v -0.102958 0.108209 0.166407
v -0.085634 -0.081703 -0.165846
v -0.087481 0.078960 -0.168075
v 0.106968 -0.113585 0.174077
v 0.098858 0.095449 0.153357
v 0.090133 -0.077206 -0.167259
v 0.082230 0.080645 -0.166989
v -0.095814 -0.089067 -0.001609
v -0.086387 0.085136 0.002749
v 0.080163 -0.081493 0.007717
v 0.080962 0.086032 0.002839
v -0.112522 -0.108919 0.093427
v -0.119433 0.000036 0.186711
v -0.096577 0.093101 -0.087234
v -0.090406 -0.003633 -0.170085
v 0.000091 -0.098087 -0.186371
v -0.000694 0.096401 -0.183755
v 0.087580 -0.004392 -0.174379
v 0.090413 -0.088114 -0.092985
v 0.108225 0.106851 0.076464
v 0.112269 0.005013 0.190596
v 0.003002 -0.131759 0.191556
v -0.004003 0.124620 0.180534
v -0.094801 -0.089439 -0.087859
v -0.095578 0.105370 0.076493
v 0.094443 -0.095778 0.076045
v 0.090544 0.094701 -0.086066
v -0.000604 0.132384 -0.001630
v 0.002474 -0.124689 -0.005876
v 0.114534 0.000636 -0.005199
v -0.117071 -0.000641 -0.003230
v -0.151542 0.003330 0.086085
v 0.115250 -0.001516 -0.094422
v 0.000215 -0.110635 -0.097976
v -0.000458 0.128494 -0.100063
v -0.007826 0.153993 0.100712
v 0.009072 -0.165754 0.091073
v -0.001124 -0.000294 0.233780
v 0.146388 0.006536 0.092575
v -0.006353 -0.000504 -0.211269
v -0.128067 0.001117 -0.092329
v -0.114125 -0.110205 0.131328
v -0.114794 0.055239 0.179586
v -0.094356 0.088082 -0.128275
v -0.090508 -0.042943 -0.170224
v -0.043968 -0.092738 -0.178836
v 0.041886 0.091220 -0.178365
v 0.091083 -0.040920 -0.172850
v 0.092203 -0.084422 -0.130388
v 0.105838 0.103342 0.115515
v 0.114084 -0.054985 0.185921
v 0.056272 -0.126707 0.186279
v -0.054535 0.120141 0.176528
v -0.095037 -0.089038 -0.044732
v -0.091051 0.095366 0.039581
v 0.087433 -0.088712 0.041838
v 0.085519 0.090111 -0.041664
v 0.042896 0.113920 -0.000119
v -0.048866 -0.112778 -0.005083
v 0.101221 -0.042142 0.000668
v -0.111224 -0.046019 -0.003289
v -0.104824 -0.099554 0.045676
v -0.118842 -0.054417 0.181100
v -0.091435 0.089074 -0.042251
v -0.091293 0.037801 -0.171325
v 0.046546 -0.090908 -0.180007
v -0.045188 0.090405 -0.178979
v 0.087253 0.038465 -0.172874
v 0.084776 -0.084407 -0.042712
v 0.094934 0.096805 0.039422
v 0.108415 0.051670 0.174445
v -0.055627 -0.123745 0.184213
v 0.049280 0.113682 0.170042
v -0.092054 -0.087320 -0.127242
v -0.101977 0.109580 0.121139
v 0.104267 -0.107393 0.124113
v 0.088645 0.089636 -0.127101
v -0.046261 0.113719 -0.000116
v 0.043765 -0.107220 0.000065
v 0.102321 0.045198 -0.001883
v -0.105939 0.043791 -0.000783
v -0.134531 0.001410 0.041338
v -0.141181 0.002048 0.138227
v -0.138341 -0.055015 0.089333
v -0.128748 0.057142 0.080717
v 0.114580 -0.000414 -0.049814
v 0.105263 -0.002906 -0.135734
v 0.107493 -0.046159 -0.094124
v 0.107770 0.047896 -0.090839
v 0.001316 -0.116989 -0.051823
v 0.000166 -0.108648 -0.142782
v -0.048568 -0.105329 -0.093804
v 0.046588 -0.104350 -0.096060
v -0.000527 0.130534 -0.050850
v -0.000572 0.116603 -0.143503
v 0.047145 0.116926 -0.093871
v -0.050682 0.116374 -0.094481
v -0.005922 0.143339 0.142107
v -0.004223 0.144017 0.049366
v 0.052985 0.137385 0.088383
v -0.054313 0.134633 0.088121
v 0.006365 -0.154719 0.143351
v 0.005829 -0.145925 0.042297
v -0.055412 -0.145194 0.091519
v 0.055583 -0.135681 0.082403
v -0.063103 0.000292 0.217348
v 0.058051 0.002771 0.218745
v 0.001047 -0.068696 0.220991
v -0.002446 0.065224 0.214331
v 0.134891 0.006011 0.143525
v 0.130960 0.003636 0.043523
v 0.125561 -0.047120 0.083606
v 0.132592 0.058657 0.084229
v 0.042833 -0.002387 -0.198470
v -0.050658 -0.002100 -0.195328
v -0.003314 -0.050749 -0.204471
v -0.003649 0.049387 -0.202555
v -0.112843 -0.001281 -0.132952
v -0.122574 0.000198 -0.047780
v -0.116462 -0.046042 -0.090779
v -0.117026 0.048751 -0.090356
v -0.111466 0.046241 -0.045573
v -0.113652 -0.045999 -0.047046
v -0.106519 -0.045734 -0.131541
v -0.049255 0.045293 -0.191317
v -0.048758 -0.048741 -0.191619
v 0.045813 -0.047976 -0.193751
v 0.117952 0.052163 0.040962
v 0.113706 -0.044713 0.042040
v 0.125106 -0.052660 0.135233
v 0.055278 0.061249 0.199810
v 0.059780 -0.064446 0.209577
v -0.061408 -0.064299 0.207609
v 0.049886 -0.121804 0.041081
v -0.052483 -0.129778 0.042929
v -0.057507 -0.139201 0.138956
v -0.050457 0.124602 0.043886
v 0.048207 0.126311 0.043927
v 0.052739 0.129195 0.130349
v -0.049608 0.106996 -0.137947
v 0.046190 0.107619 -0.137301
v 0.044981 0.115285 -0.047001
v 0.048152 -0.101050 -0.138582
v -0.047767 -0.102353 -0.136893
v -0.048509 -0.108525 -0.049398
v 0.100881 0.044490 -0.132850
v 0.102463 -0.044744 -0.134229
v 0.103905 -0.043976 -0.046765
v -0.126492 0.058338 0.130859
v -0.133172 -0.056290 0.136200
v -0.125340 -0.050689 0.042842
v -0.117488 0.050575 0.039909
v 0.104709 0.046431 -0.046385
v 0.044850 -0.105144 -0.047988
v -0.048474 0.115061 -0.047298
v -0.056099 0.131464 0.132989
v 0.058533 -0.136389 0.134773
v -0.060672 0.063221 0.202735
v 0.124759 0.057036 0.130623
v 0.043597 0.045847 -0.192506
v -0.107485 0.044544 -0.132069
vn -0.9289 0.2004 -0.3114
vn -0.7266 0.6381 -0.2546
vn -0.6393 0.4903 -0.5923
vn -0.7191 0.1192 -0.6846
vn 0.3162 0.1949 -0.9285
vn 0.3034 0.6401 -0.7059
vn 0.6483 0.5067 -0.5683
vn 0.7315 0.1505 -0.6651
vn 0.9049 0.3373 0.2595
vn 0.7100 0.6703 0.2160
vn 0.6353 0.6012 0.4847
vn 0.6967 0.3628 0.6189
vn -0.2947 0.3204 0.9003
vn -0.2813 0.7364 0.6153
vn -0.6370 0.6248 0.4515
vn -0.7330 0.2943 0.6133
vn 0.4351 -0.8979 0.0663
vn 0.7731 -0.6301 -0.0729
vn 0.6896 -0.5925 0.4164
vn 0.3257 -0.7153 0.6182
vn -0.3511 0.9249 0.1459
vn -0.7087 0.7051 0.0249
vn -0.4096 0.9111 0.0455
vn -0.7387 0.6636 0.1184
vn -0.7533 0.6509 -0.0943
vn -0.4598 0.8817 -0.1056
vn 0.3655 -0.9306 -0.0193
vn 0.7205 -0.6892 0.0768
vn 0.7434 -0.6530 -0.1447
vn 0.4822 -0.8548 -0.1920
vn 0.9518 0.2989 0.0688
vn 0.7507 0.6527 0.1025
vn 0.7361 0.6562 -0.1663
vn 0.9254 0.3443 -0.1583
vn -0.8670 0.3943 -0.3048
vn -0.7022 0.6569 -0.2745
vn -0.9311 0.3533 -0.0907
vn -0.9127 -0.2832 -0.2946
vn -0.9402 0.0639 -0.3346
vn -0.9918 0.0499 -0.1174
vn -0.9558 -0.2644 -0.1289
vn -0.9533 -0.2350 0.1898
vn -0.9671 0.0657 0.2456
vn -0.9928 0.0755 -0.0926
vn -0.9496 -0.2985 -0.0960
vn -0.9283 0.3495 0.1267
vn -0.6940 0.6984 -0.1749
vn -0.8955 0.4218 -0.1417
vn 0.9425 -0.3263 0.0724
vn 0.9990 -0.0156 0.0409
vn 0.9892 -0.0296 -0.1436
vn 0.9153 -0.3870 -0.1119
vn 0.9676 -0.1556 -0.1988
vn 0.9595 0.0168 -0.2811
vn 0.9971 -0.0053 -0.0758
vn 0.9644 -0.2636 -0.0199
vn 0.9509 0.1855 -0.2479
vn 0.7419 0.6293 -0.2313
vn 0.7488 0.6626 -0.0139
vn 0.9670 0.2505 -0.0467
vn -0.2832 -0.9559 -0.0779
vn 0.0480 -0.9936 -0.1022
vn 0.0827 -0.9633 -0.2554
vn -0.3382 -0.9167 -0.2127
vn -0.2394 -0.9598 -0.1462
vn 0.0110 -0.9882 -0.1530
vn 0.0194 -0.9972 -0.0726
vn -0.2425 -0.9678 -0.0671
vn 0.2649 -0.9530 -0.1468
vn 0.7378 -0.6597 -0.1428
vn 0.7067 -0.7074 0.0123
vn 0.2779 -0.9599 -0.0356
vn 0.4176 0.9073 0.0486
vn 0.0044 1.0000 0.0018
vn 0.0028 0.9917 -0.1289
vn 0.4505 0.8839 -0.1252
vn 0.3178 0.9041 -0.2855
vn 0.0008 0.9424 -0.3346
vn 0.0025 0.9918 -0.1274
vn 0.3637 0.9283 -0.0770
vn -0.3148 0.9043 -0.2883
vn -0.7309 0.6822 -0.0206
vn -0.3591 0.9298 -0.0806
vn 0.3770 0.8876 0.2645
vn 0.0104 0.9566 0.2911
vn 0.0477 0.7456 0.6647
vn 0.3612 0.7059 0.6093
vn 0.3906 0.8770 -0.2798
vn -0.0330 0.9706 -0.2382
vn -0.0446 0.9990 0.0086
vn 0.3757 0.9257 -0.0443
vn -0.4499 0.8582 -0.2472
vn -0.4279 0.8983 -0.1001
vn -0.3517 -0.9157 0.1944
vn 0.0524 -0.9684 0.2439
vn 0.0001 -0.7235 0.6904
vn -0.3171 -0.6918 0.6487
vn -0.3753 -0.8713 -0.3160
vn 0.0974 -0.9215 -0.3759
vn 0.1039 -0.9891 -0.1045
vn -0.3930 -0.9134 -0.1055
vn 0.5372 -0.7720 -0.3397
vn 0.7367 -0.6083 -0.2955
vn 0.7591 -0.6080 -0.2328
vn 0.5439 -0.8162 -0.1947
vn -0.3226 -0.2565 0.9111
vn -0.3439 0.0385 0.9382
vn -0.7374 0.0431 0.6741
vn -0.7414 -0.2101 0.6373
vn 0.3020 -0.2309 0.9249
vn 0.3402 0.0938 0.9357
vn -0.0001 0.0538 0.9986
vn -0.0090 -0.2839 0.9588
vn 0.3459 0.3964 0.8504
vn 0.0285 0.3828 0.9234
vn 0.9605 -0.2659 0.0822
vn 0.9626 0.0352 0.2687
vn 0.7174 0.0990 0.6895
vn 0.7652 -0.1963 0.6132
vn 0.8711 -0.4047 -0.2783
vn 0.9470 -0.0442 -0.3181
vn 0.9982 -0.0201 -0.0563
vn 0.9139 -0.3755 -0.1544
vn 0.8748 0.3229 -0.3613
vn 0.6773 0.6348 -0.3719
vn 0.7192 0.6821 -0.1326
vn 0.9362 0.3383 -0.0954
vn 0.3202 -0.1717 -0.9317
vn 0.3394 0.0169 -0.9405
vn 0.7300 0.0248 -0.6830
vn 0.7531 -0.1088 -0.6488
vn -0.3646 -0.1845 -0.9127
vn -0.3993 -0.0003 -0.9168
vn -0.0427 0.0160 -0.9990
vn -0.0273 -0.2242 -0.9742
vn -0.3420 0.1755 -0.9232
vn -0.3035 0.6341 -0.7112
vn 0.0012 0.6763 -0.7366
vn -0.0164 0.2404 -0.9705
vn -0.9251 -0.2326 -0.3000
vn -0.9268 -0.0143 -0.3752
vn -0.7227 -0.0132 -0.6910
vn -0.7280 -0.1535 -0.6682
vn -0.9548 -0.2918 0.0562
vn -0.9937 0.0207 0.1104
vn -0.9954 0.0029 -0.0961
vn -0.9479 -0.3078 -0.0824
vn -0.9380 0.3201 0.1328
vn -0.9526 0.2999 -0.0509
vn -0.7071 -0.7071 -0.0096
vn -0.6809 -0.7300 -0.0591
vn -0.7333 -0.6572 -0.1740
vn -0.6893 -0.6982 -0.1933
vn -0.6343 -0.5542 -0.5389
vn -0.3082 -0.7012 -0.6429
vn 0.0001 -0.7374 -0.6754
vn 0.3122 -0.6901 -0.6530
vn 0.6898 -0.5076 -0.5163
vn -0.6584 -0.5632 0.4994
vn -0.7179 -0.6346 -0.2862
vn -0.7420 -0.6605 -0.1148
vn -0.7481 -0.6517 0.1249
vt 0.390980 0.266537
vt 0.429967 0.193983
vt 0.256682 0.182753
vt 0.227288 0.140672
vt 0.361052 0.188810
vt 0.396829 0.136055
vt 0.285462 0.127152
vt 0.252358 0.074146
vt 0.259306 0.266175
vt 0.186021 0.171663
vt 0.465465 0.171663
vt 0.329139 0.161457
vt 0.405798 0.064388
vt 0.378742 0.291972
vt 0.418437 0.234649
vt 0.210679 0.151081
vt 0.242173 0.162828
vt 0.271457 0.157587
vt 0.234331 0.103636
vt 0.274209 0.100749
vt 0.299824 0.137154
vt 0.398530 0.102883
vt 0.380865 0.162489
vt 0.367457 0.228474
vt 0.415449 0.164481
vt 0.257291 0.214563
vt 0.444943 0.183061
vt 0.347452 0.177216
vt 0.235904 0.041392
vt 0.515348 0.041392
vt 0.450871 0.106996
vt 0.171427 0.106996
vt 0.308765 0.217797
vt 0.342340 0.093559
vt 0.206405 0.231490
vt 0.450657 0.245206
vt 0.298681 0.084165
vt 0.282738 0.180599
vt 0.209444 0.093247
vt 0.428517 0.141615
vt 0.339253 0.231286
vt 0.395206 0.201354
vt 0.368138 0.128254
vt 0.254520 0.129847
vt 0.228609 0.193679
vt 0.388283 0.278827
vt 0.425379 0.214826
vt 0.219517 0.145261
vt 0.249321 0.173492
vt 0.264398 0.170553
vt 0.241271 0.087826
vt 0.280685 0.113547
vt 0.292273 0.131275
vt 0.397528 0.120344
vt 0.370746 0.175522
vt 0.363555 0.208850
vt 0.422745 0.179128
vt 0.257884 0.237878
vt 0.174391 0.178502
vt 0.453836 0.178502
vt 0.339606 0.170592
vt 0.431861 0.035966
vt 0.436796 0.081036
vt 0.292227 0.248013
vt 0.334295 0.126984
vt 0.225999 0.256149
vt 0.273322 0.293837
vt 0.552766 0.293837
vt 0.408692 0.252957
vt 0.200050 0.159772
vt 0.234572 0.151715
vt 0.278356 0.142663
vt 0.230186 0.121837
vt 0.265393 0.085621
vt 0.312358 0.146463
vt 0.400591 0.086820
vt 0.388301 0.149000
vt 0.375229 0.249060
vt 0.406761 0.149797
vt 0.256945 0.197346
vt 0.436995 0.189395
vt 0.354821 0.183551
vt 0.248781 0.058657
vt 0.459015 0.137779
vt 0.179570 0.137779
vt 0.319299 0.190747
vt 0.365222 0.068058
vt 0.194660 0.201824
vt 0.186770 0.243109
vt 0.466214 0.243109
vt 0.432376 0.242398
vt 0.443510 0.275323
vt 0.448354 0.214863
vt 0.318756 0.082779
vt 0.284322 0.091385
vt 0.300390 0.111096
vt 0.287940 0.055806
vt 0.567385 0.055806
vt 0.293412 0.198836
vt 0.276600 0.168188
vt 0.271293 0.200630
vt 0.292038 0.159396
vt 0.470580 0.095236
vt 0.191136 0.095236
vt 0.223382 0.097033
vt 0.492517 0.066178
vt 0.213073 0.066178
vt 0.209214 0.122050
vt 0.421567 0.153338
vt 0.436896 0.126013
vt 0.416470 0.119062
vt 0.437077 0.160280
vt 0.354292 0.232086
vt 0.326147 0.228400
vt 0.341960 0.263609
vt 0.342501 0.205858
vt 0.405163 0.219033
vt 0.387875 0.182387
vt 0.382753 0.216865
vt 0.405555 0.183700
vt 0.375169 0.146284
vt 0.359530 0.112794
vt 0.357058 0.149975
vt 0.381379 0.111791
vt 0.263118 0.114571
vt 0.248244 0.145752
vt 0.263285 0.143369
vt 0.245374 0.115816
vt 0.235998 0.177521
vt 0.220609 0.210870
vt 0.241751 0.207385
vt 0.218842 0.173346
vt 0.209159 0.186154
vt 0.236913 0.229211
vt 0.246063 0.189299
vt 0.239513 0.133151
vt 0.256474 0.158326
vt 0.271371 0.128336
vt 0.376928 0.093564
vt 0.348160 0.139751
vt 0.364510 0.163822
vt 0.397202 0.166364
vt 0.376127 0.196757
vt 0.392655 0.236734
vt 0.332612 0.200685
vt 0.317975 0.263287
vt 0.361972 0.258722
vt 0.446077 0.150372
vt 0.423109 0.102112
vt 0.411016 0.135014
vt 0.220454 0.121005
vt 0.230933 0.075720
vt 0.464398 0.064820
vt 0.184954 0.064820
vt 0.284767 0.150105
vt 0.267408 0.184349
vt 0.278436 0.222977
vt 0.272524 0.070878
vt 0.289692 0.111348
vt 0.315348 0.114887
vt 0.435954 0.216143
vt 0.420343 0.265844
vt 0.197450 0.275192
vt 0.476894 0.275192
vt 0.180051 0.211013
vt 0.459495 0.211013
vt 0.327067 0.048895
vt 0.303501 0.173424
vt 0.195783 0.127101
vt 0.429526 0.170425
vt 0.353743 0.208265
vt 0.414847 0.199619
vt 0.385355 0.131463
vt 0.253556 0.099598
vt 0.227258 0.161779
s 1
f 162/175/1 45/48/2 4/4/3 66/71/4
f 161/174/5 48/51/6 8/8/7 69/74/8
f 160/173/9 51/54/10 6/6/11 72/77/12
f 159/172/13 54/57/14 2/2/15 44/47/16
f 158/171/17 77/82/18 5/5/19 53/56/20
f 157/170/21 76/81/22 2/2/15 54/57/14
f 156/169/23 65/70/24 10/10/25 79/85/26
f 155/168/27 70/75/28 11/12/29 80/86/30
f 154/167/31 58/62/32 12/13/33 81/87/34
f 153/165/35 56/59/36 10/10/25 82/88/37
f 152/163/38 83/89/39 32/35/40 62/66/41
f 151/162/42 84/91/43 33/36/44 85/92/45
f 150/161/46 76/81/22 26/27/47 86/93/48
f 149/160/49 87/94/50 31/34/51 61/65/52
f 148/159/53 88/95/54 34/37/55 89/96/56
f 147/158/57 78/83/58 28/29/59 90/97/60
f 146/157/61 91/99/62 30/33/63 60/64/64
f 145/156/65 92/100/66 35/38/67 93/101/68
f 144/155/69 50/53/70 20/21/71 94/102/72
f 143/153/73 95/103/74 29/31/75 59/63/76
f 142/152/77 96/105/78 36/39/79 97/107/80
f 141/151/81 45/48/2 15/16/82 98/108/83
f 140/150/84 99/109/85 24/25/86 74/79/87
f 139/149/88 100/110/89 37/40/90 101/111/91
f 138/148/92 56/60/36 26/27/47 102/112/93
f 137/147/94 103/113/95 23/24/96 73/78/97
f 136/146/98 104/114/99 38/41/100 105/115/101
f 135/145/102 57/61/103 27/28/104 106/116/105
f 134/144/106 107/117/107 14/15/108 64/69/109
f 133/143/110 108/118/111 39/42/112 109/119/113
f 132/142/114 74/79/87 24/25/86 110/120/115
f 131/141/116 111/121/117 22/23/118 52/55/119
f 130/140/120 112/122/121 40/43/122 113/123/123
f 129/139/124 71/76/125 21/22/126 114/124/127
f 128/138/128 115/125/129 19/20/130 49/52/131
f 127/137/132 116/126/133 41/44/134 117/127/135
f 126/136/136 68/73/137 18/19/138 118/128/139
f 125/135/140 119/129/141 16/17/142 46/49/143
f 124/134/144 120/130/145 42/45/146 121/131/147
f 123/133/148 65/70/24 15/16/82 122/132/149
f 120/130/145 123/133/148 122/132/149 42/45/146
f 32/35/40 82/88/37 123/133/148 120/130/145
f 82/88/37 10/10/25 65/70/24 123/133/148
f 55/58/150 124/134/144 121/131/147 25/26/151
f 9/9/152 62/66/41 124/134/144 55/58/150
f 62/66/41 32/35/40 120/130/145 124/134/144
f 75/80/153 125/135/140 46/49/143 3/3/154
f 25/26/151 121/131/147 125/135/140 75/80/153
f 121/131/147 42/45/146 119/129/141 125/135/140
f 116/126/133 126/136/136 118/128/139 41/44/134
f 16/17/142 66/71/4 126/136/136 116/126/133
f 66/71/4 4/4/3 68/73/137 126/136/136
f 47/50/155 127/137/132 117/127/135 17/18/156
f 3/3/154 46/49/143 127/137/132 47/50/155
f 46/49/143 16/17/142 116/126/133 127/137/132
f 67/72/157 128/138/128 49/52/131 7/7/158
f 17/18/156 117/127/135 128/138/128 67/72/157
f 117/127/135 41/44/134 115/125/129 128/138/128
f 112/122/121 129/139/124 114/124/127 40/43/122
f 31/34/51 81/87/34 129/139/124 112/122/121
f 81/87/34 12/13/33 71/76/125 129/139/124
f 57/61/103 130/140/120 113/123/123 27/28/104
f 11/12/29 61/65/52 130/140/120 57/61/103
f 61/65/52 31/34/51 112/122/121 130/140/120
f 77/82/18 131/141/116 52/55/119 5/5/19
f 27/28/104 113/123/123 131/141/116 77/82/18
f 113/123/123 40/43/122 111/121/117 131/141/116
f 108/118/111 132/142/114 110/120/115 39/42/112
f 22/23/118 72/77/12 132/142/114 108/118/111
f 72/77/12 6/6/11 74/79/87 132/142/114
f 53/56/20 133/143/110 109/119/113 23/24/96
f 5/5/19 52/55/119 133/143/110 53/56/20
f 52/55/119 22/23/118 108/118/111 133/143/110
f 73/78/97 134/144/106 64/69/109 1/1/159
f 23/24/96 109/119/113 134/144/106 73/78/97
f 109/119/113 39/42/112 107/117/107 134/144/106
f 104/114/99 135/145/102 106/116/105 38/41/100
f 30/33/63 80/86/30 135/145/102 104/114/99
f 80/86/30 11/12/29 57/61/103 135/145/102
f 63/67/160 136/146/98 105/115/101 13/14/161
f 9/9/152 60/64/64 136/146/98 63/67/160
f 60/64/64 30/33/63 104/114/99 136/146/98
f 43/46/162 137/147/94 73/78/97 1/1/159
f 13/14/161 105/115/101 137/147/94 43/46/162
f 105/115/101 38/41/100 103/113/95 137/147/94
f 100/110/89 138/148/92 102/112/93 37/40/90
f 29/31/75 79/84/26 138/148/92 100/110/89
f 79/84/26 10/11/25 56/60/36 138/148/92
f 71/76/125 139/149/88 101/111/91 21/22/126
f 12/13/33 59/63/76 139/149/88 71/76/125
f 59/63/76 29/31/75 100/110/89 139/149/88
f 51/54/10 140/150/84 74/79/87 6/6/11
f 21/22/126 101/111/91 140/150/84 51/54/10
f 101/111/91 37/40/90 99/109/85 140/150/84
f 96/105/78 141/151/81 98/108/83 36/39/79
f 18/19/138 68/73/137 141/151/81 96/105/78
f 68/73/137 4/4/3 45/48/2 141/151/81
f 78/83/58 142/152/77 97/107/80 28/29/59
f 8/8/7 48/51/6 142/152/77 78/83/58
f 48/51/6 18/19/138 96/105/78 142/152/77
f 58/62/32 143/153/73 59/63/76 12/13/33
f 28/30/59 97/106/80 143/153/73 58/62/32
f 97/107/80 36/39/79 95/104/74 143/154/73
f 92/100/66 144/155/69 94/102/72 35/38/67
f 17/18/156 67/72/157 144/155/69 92/100/66
f 67/72/157 7/7/158 50/53/70 144/155/69
f 75/80/153 145/156/65 93/101/68 25/26/151
f 3/3/154 47/50/155 145/156/65 75/80/153
f 47/50/155 17/18/156 92/100/66 145/156/65
f 55/58/150 146/157/61 60/64/64 9/9/152
f 25/26/151 93/101/68 146/157/61 55/58/150
f 93/101/68 35/38/67 91/99/62 146/157/61
f 88/95/54 147/158/57 90/97/60 34/37/55
f 19/20/130 69/74/8 147/158/57 88/95/54
f 69/74/8 8/8/7 78/83/58 147/158/57
f 50/53/70 148/159/53 89/96/56 20/21/71
f 7/7/158 49/52/131 148/159/53 50/53/70
f 49/52/131 19/20/130 88/95/54 148/159/53
f 70/75/28 149/160/49 61/65/52 11/12/29
f 20/21/71 89/96/56 149/160/49 70/75/28
f 89/96/56 34/37/55 87/94/50 149/160/49
f 84/91/43 150/161/46 86/93/48 33/36/44
f 14/15/108 44/47/16 150/161/46 84/91/43
f 44/47/16 2/2/15 76/81/22 150/161/46
f 43/46/162 151/162/42 85/92/45 13/14/161
f 1/1/159 64/69/109 151/162/42 43/46/162
f 64/69/109 14/15/108 84/91/43 151/162/42
f 63/67/160 152/163/38 62/66/41 9/9/152
f 13/14/161 85/92/45 152/164/38 63/68/160
f 85/92/45 33/36/44 83/90/39 152/164/38
f 83/89/39 153/165/35 82/88/37 32/35/40
f 33/36/44 86/93/48 153/166/35 83/90/39
f 86/93/48 26/27/47 56/60/36 153/166/35
f 87/94/50 154/167/31 81/87/34 31/34/51
f 34/37/55 90/97/60 154/167/31 87/94/50
f 90/98/60 28/30/59 58/62/32 154/167/31
f 91/99/62 155/168/27 80/86/30 30/33/63
f 35/38/67 94/102/72 155/168/27 91/99/62
f 94/102/72 20/21/71 70/75/28 155/168/27
f 95/104/74 156/169/23 79/85/26 29/32/75
f 36/39/79 98/108/83 156/169/23 95/104/74
f 98/108/83 15/16/82 65/70/24 156/169/23
f 99/109/85 157/170/21 54/57/14 24/25/86
f 37/40/90 102/112/93 157/170/21 99/109/85
f 102/112/93 26/27/47 76/81/22 157/170/21
f 103/113/95 158/171/17 53/56/20 23/24/96
f 38/41/100 106/116/105 158/171/17 103/113/95
f 106/116/105 27/28/104 77/82/18 158/171/17
f 107/117/107 159/172/13 44/47/16 14/15/108
f 39/42/112 110/120/115 159/172/13 107/117/107
f 110/120/115 24/25/86 54/57/14 159/172/13
f 111/121/117 160/173/9 72/77/12 22/23/118
f 40/43/122 114/124/127 160/173/9 111/121/117
f 114/124/127 21/22/126 51/54/10 160/173/9
f 115/125/129 161/174/5 69/74/8 19/20/130
f 41/44/134 118/128/139 161/174/5 115/125/129
f 118/128/139 18/19/138 48/51/6 161/174/5
f 119/129/141 162/175/1 66/71/4 16/17/142
f 42/45/146 122/132/149 162/175/1 119/129/141
f 122/132/149 15/16/82 45/48/2 162/175/1
