# Blender 3.3.0
# www.blender.org
o Rock
v -0.233265 -0.250803 0.304301
v -0.261327 0.288824 0.334195
v -0.242500 -0.210623 -0.290730
v -0.213960 0.331277 -0.236809
v 0.326240 -0.269584 0.351081
v 0.269020 0.284586 0.261038
v 0.270026 -0.227459 -0.178007
v 0.252760 0.317343 -0.267247
v -0.318828 -0.263307 -0.143531
v -0.274074 -0.355632 -0.040367
v -0.284783 -0.310494 0.106834
v -0.312485 -0.070408 0.365891
v -0.313239 0.044479 0.318386
v -0.260273 0.143480 0.305670
v -0.268511 0.325840 0.141149
v -0.354588 0.349269 -0.030684
v -0.274743 0.274718 -0.185078
v -0.313241 0.134365 -0.322058
v -0.319591 0.012908 -0.268315
v -0.370727 -0.138458 -0.287413
v 0.131364 -0.269265 -0.249504
v 0.028596 -0.268149 -0.279812
v -0.101340 -0.232363 -0.240115
v -0.163151 0.356660 -0.314484
v 0.047650 0.282825 -0.306688
v 0.088213 0.312876 -0.216385
v 0.355439 0.220573 -0.268442
v 0.250427 0.019719 -0.310883
v 0.287688 -0.138256 -0.236187
v 0.285302 -0.300986 0.149440
v 0.351264 -0.310606 0.013781
v 0.309472 -0.260549 -0.161546
v 0.337104 0.359580 -0.140352
v 0.344571 0.327454 0.089093
v 0.282879 0.297360 0.174263
v 0.252996 0.209043 0.347975
v 0.307929 0.007137 0.331381
v 0.340902 -0.127881 0.365593
v -0.119480 -0.297144 0.328607
v -0.044638 -0.330455 0.258151
v 0.162676 -0.275976 0.363919
v 0.173641 0.284130 0.319689
v -0.017265 0.285071 0.295001
v -0.091460 0.356434 0.320754
v 0.165599 0.291618 -0.050824
v 0.130940 0.381789 -0.029775
v 0.183296 0.334301 0.129638
v 0.030766 0.349721 -0.196397
v 0.005226 0.336054 0.049938
v -0.040928 0.322791 0.118789
v -0.132918 0.410208 -0.130856
v -0.213882 0.452363 0.008041
v -0.121606 0.377785 0.113802
v -0.164026 -0.269735 -0.121077
v -0.146800 -0.313171 0.076257
v -0.103132 -0.309441 0.251786
v -0.090287 -0.323851 -0.137536
v -0.096943 -0.336540 -0.042753
v -0.036710 -0.379059 0.138267
v 0.160598 -0.355838 -0.063549
v 0.193546 -0.352281 0.094306
v 0.173011 -0.340684 0.210426
v 0.230570 -0.115403 0.398063
v 0.017736 -0.153101 0.433097
v -0.202779 -0.140868 0.453175
v 0.194711 0.062576 0.363688
v -0.011764 0.016259 0.349842
v -0.218399 -0.001393 0.316078
v 0.178347 0.263494 0.395556
v -0.012752 0.189990 0.381449
v -0.135434 0.175930 0.343074
v 0.296865 -0.152673 -0.081554
v 0.369587 -0.165754 0.095471
v 0.363073 -0.097741 0.215734
v 0.350450 -0.030092 -0.107685
v 0.370662 0.014257 -0.016311
v 0.340627 -0.038844 0.143674
v 0.389910 0.180542 -0.095730
v 0.368794 0.177922 0.096465
v 0.350963 0.264325 0.257910
v -0.231043 -0.205434 -0.347860
v -0.025925 -0.187574 -0.320385
v 0.034819 -0.201276 -0.261106
v -0.191154 0.043286 -0.328803
v -0.026907 0.022110 -0.332748
v 0.119815 0.054914 -0.352113
v -0.174845 0.121133 -0.333655
v 0.086140 0.216897 -0.300019
v 0.166639 0.210432 -0.250525
v -0.375460 -0.036987 0.279998
v -0.378313 -0.122389 0.015483
v -0.392957 -0.139450 -0.076352
v -0.348721 0.004629 0.113049
v -0.379051 0.026417 0.037389
v -0.357682 0.043749 -0.148957
v -0.344849 0.156198 0.154110
v -0.314745 0.150435 -0.020020
v -0.367884 0.146243 -0.200143
vn -0.9573 0.1890 -0.2188
vn -0.7782 0.5453 -0.3116
vn -0.6517 0.6386 -0.4092
vn -0.6636 0.1150 -0.7392
vn 0.0929 0.2685 -0.9588
vn 0.3084 0.8429 -0.4408
vn 0.0969 0.6651 -0.7405
vn 0.6878 0.1660 -0.7067
vn 0.7906 0.4583 0.4061
vn 0.4070 0.8686 0.2826
vn 0.2709 0.8825 0.3845
vn 0.6233 0.2858 0.7279
vn -0.1081 0.0355 0.9935
vn 0.1107 0.7910 0.6018
vn -0.5624 0.4479 0.6950
vn -0.6087 0.1183 0.7845
vn 0.1666 -0.9651 0.2023
vn 0.6293 -0.7411 0.2341
vn 0.6356 -0.5800 0.5095
vn 0.0888 -0.7023 0.7063
vn 0.1522 0.9418 0.2998
vn -0.7266 0.6023 0.3306
vn 0.0475 0.9625 0.2669
vn 0.1386 0.8920 0.4304
vn 0.3138 0.9253 0.2132
vn 0.1215 0.8346 0.5374
vn -0.0055 0.9880 -0.1546
vn 0.5450 0.8215 -0.1676
vn 0.0248 0.9992 -0.0308
vn 0.6457 0.7550 0.1143
vn 0.3449 0.5079 -0.7894
vn 0.3398 0.9088 -0.2421
vn 0.1638 0.9741 0.1560
vn -0.1652 0.6248 -0.7631
vn 0.0067 0.9720 -0.2349
vn -0.1827 0.9789 0.0919
vn -0.8383 0.5428 -0.0503
vn -0.5826 -0.7858 0.2076
vn -0.3266 -0.9192 0.2199
vn -0.1798 -0.8011 0.5708
vn -0.5919 -0.6839 0.4265
vn -0.1828 -0.9794 0.0862
vn -0.1111 -0.8710 0.4785
vn -0.3282 -0.9124 -0.2443
vn -0.2119 -0.8464 -0.4886
vn -0.1620 -0.9062 -0.3905
vn -0.5189 -0.8173 -0.2506
vn -0.2371 -0.9714 0.0126
vn -0.3022 -0.9390 -0.1639
vn 0.1549 -0.5944 -0.7891
vn -0.3358 -0.8830 -0.3281
vn -0.3681 -0.9269 -0.0730
vn 0.2611 -0.5999 -0.7562
vn 0.1304 -0.9606 -0.2456
vn 0.2177 -0.9760 -0.0082
vn 0.6335 -0.4123 -0.6548
vn 0.7651 -0.4873 -0.4209
vn 0.8100 -0.5813 -0.0775
vn -0.2585 -0.1155 0.9591
vn -0.6493 0.0679 0.7575
vn -0.0894 0.3357 0.9377
vn -0.6422 0.3731 0.6696
vn 0.7728 0.0054 0.6346
vn 0.1449 0.0167 0.9893
vn 0.0103 -0.1136 0.9935
vn 0.7364 0.1762 0.6532
vn 0.1739 0.0623 0.9828
vn -0.0747 0.1801 0.9808
vn 0.1590 0.4662 0.8703
vn -0.0985 0.2015 0.9745
vn 0.9911 0.0602 0.1190
vn 0.9778 0.1026 0.1830
vn 0.6892 -0.2484 -0.6807
vn 0.9543 -0.0639 -0.2918
vn 0.9859 -0.1418 0.0889
vn 0.5023 -0.1363 -0.8539
vn 0.9379 -0.2207 -0.2675
vn 0.9920 -0.1242 -0.0225
vn 0.9873 0.0445 -0.1527
vn 0.9891 0.0942 0.1129
vn 0.3453 -0.0946 -0.9337
vn 0.1431 0.0453 -0.9887
vn -0.8036 -0.1839 -0.5661
vn -0.2704 -0.5615 -0.7820
vn 0.1242 -0.3733 -0.9194
vn -0.7540 0.0273 -0.6563
vn -0.1254 -0.0248 -0.9918
vn 0.1068 -0.0002 -0.9943
vn -0.1284 0.0551 -0.9902
vn 0.2778 0.3217 -0.9052
vn -0.9727 -0.2202 -0.0729
vn -0.9858 0.1339 -0.1017
vn -0.9570 0.0515 0.2855
vn -0.9838 -0.1690 0.0591
vn -0.9665 0.2291 0.1158
vn -0.9799 0.1970 0.0306
vn -0.9618 0.1838 0.2029
vn -0.9792 0.1977 0.0452
vt 0.286070 0.327542
vt 0.181515 0.432097
vt 0.599735 0.432097
vt 0.181515 0.536653
vt 0.286070 0.641208
vt 0.599735 0.536653
vt 0.390625 0.327542
vt 0.495180 0.432097
vt 0.390625 0.641208
vt 0.495180 0.536653
vt 0.286070 0.432097
vt 0.286070 0.536653
vt 0.390625 0.432097
vt 0.390625 0.536653
vt 0.364486 0.327542
vt 0.521319 0.432097
vt 0.338347 0.327542
vt 0.547458 0.432097
vt 0.312209 0.327542
vt 0.573597 0.432097
vt 0.181515 0.458236
vt 0.599735 0.458236
vt 0.181515 0.484375
vt 0.599735 0.484375
vt 0.181515 0.510514
vt 0.599735 0.510514
vt 0.312209 0.641208
vt 0.573597 0.536653
vt 0.338347 0.641208
vt 0.547458 0.536653
vt 0.364486 0.641208
vt 0.521319 0.536653
vt 0.495180 0.510514
vt 0.495180 0.484375
vt 0.495180 0.458236
vt 0.390625 0.405959
vt 0.416764 0.432097
vt 0.390625 0.379820
vt 0.442903 0.432097
vt 0.390625 0.353681
vt 0.469041 0.432097
vt 0.390625 0.615069
vt 0.469041 0.536653
vt 0.390625 0.588930
vt 0.442903 0.536653
vt 0.390625 0.562791
vt 0.416764 0.536653
vt 0.390625 0.510514
vt 0.390625 0.484375
vt 0.390625 0.458236
vt 0.312209 0.432097
vt 0.338347 0.432097
vt 0.364486 0.432097
vt 0.364486 0.536653
vt 0.338347 0.536653
vt 0.312209 0.536653
vt 0.286070 0.510514
vt 0.286070 0.484375
vt 0.286070 0.458236
vt 0.286070 0.353681
vt 0.207653 0.432097
vt 0.286070 0.379820
vt 0.233792 0.432097
vt 0.286070 0.405959
vt 0.259931 0.432097
vt 0.286070 0.562791
vt 0.259931 0.536653
vt 0.286070 0.588930
vt 0.233792 0.536653
vt 0.286070 0.615069
vt 0.207653 0.536653
vt 0.364486 0.562791
vt 0.338347 0.562791
vt 0.312209 0.562791
vt 0.364486 0.588930
vt 0.338347 0.588930
vt 0.312209 0.588930
vt 0.364486 0.615069
vt 0.338347 0.615069
vt 0.312209 0.615069
vt 0.364486 0.353681
vt 0.338347 0.353681
vt 0.312209 0.353681
vt 0.364486 0.379820
vt 0.338347 0.379820
vt 0.312209 0.379820
vt 0.364486 0.405959
vt 0.338347 0.405959
vt 0.312209 0.405959
vt 0.259931 0.458236
vt 0.233792 0.458236
vt 0.207653 0.458236
vt 0.259931 0.484375
vt 0.233792 0.484375
vt 0.207653 0.484375
vt 0.259931 0.510514
vt 0.233792 0.510514
vt 0.207653 0.510514
vt 0.364486 0.458236
vt 0.338347 0.458236
vt 0.312209 0.458236
vt 0.364486 0.484375
vt 0.338347 0.484375
vt 0.312209 0.484375
vt 0.364486 0.510514
vt 0.338347 0.510514
vt 0.312209 0.510514
vt 0.469041 0.458236
vt 0.442903 0.458236
vt 0.416764 0.458236
vt 0.469041 0.484375
vt 0.442903 0.484375
vt 0.416764 0.484375
vt 0.469041 0.510514
vt 0.442903 0.510514
vt 0.416764 0.510514
vt 0.573597 0.458236
vt 0.547458 0.458236
vt 0.521319 0.458236
vt 0.573597 0.484375
vt 0.547458 0.484375
vt 0.521319 0.484375
vt 0.573597 0.510514
vt 0.547458 0.510514
vt 0.521319 0.510514
s 1
f 98/125/1 17/32/2 4/10/3 18/33/4
f 89/116/5 26/47/6 8/14/7 27/48/8
f 80/107/9 35/56/10 6/12/11 36/57/12
f 71/98/13 44/71/14 2/4/15 14/25/16
f 62/89/17 30/51/18 5/11/19 41/64/20
f 53/80/21 15/27/22 2/5/15 44/70/14
f 35/56/10 47/74/23 42/66/24 6/12/11
f 47/74/23 50/77/25 43/68/26 42/66/24
f 50/77/25 53/80/21 44/70/14 43/68/26
f 8/14/7 26/46/6 45/72/27 33/54/28
f 33/54/28 45/72/27 46/73/29 34/55/30
f 34/55/30 46/73/29 47/74/23 35/56/10
f 26/46/6 25/44/31 48/75/32 45/72/27
f 45/72/27 48/75/32 49/76/33 46/73/29
f 46/73/29 49/76/33 50/77/25 47/74/23
f 25/44/31 24/42/34 51/78/35 48/75/32
f 48/75/32 51/78/35 52/79/36 49/76/33
f 49/76/33 52/79/36 53/80/21 50/77/25
f 24/42/34 4/9/3 17/31/2 51/78/35
f 51/78/35 17/31/2 16/29/37 52/79/36
f 52/79/36 16/29/37 15/27/22 53/80/21
f 11/19/38 56/83/39 39/60/40 1/1/41
f 56/83/39 59/86/42 40/62/43 39/60/40
f 59/86/42 62/89/17 41/64/20 40/62/43
f 3/7/44 23/40/45 54/81/46 9/15/47
f 9/15/47 54/81/46 55/82/48 10/17/49
f 10/17/49 55/82/48 56/83/39 11/19/38
f 23/40/45 22/38/50 57/84/51 54/81/46
f 54/81/46 57/84/51 58/85/52 55/82/48
f 55/82/48 58/85/52 59/86/42 56/83/39
f 22/38/50 21/36/53 60/87/54 57/84/51
f 57/84/51 60/87/54 61/88/55 58/85/52
f 58/85/52 61/88/55 62/89/17 59/86/42
f 21/36/53 7/13/56 32/53/57 60/87/54
f 60/87/54 32/53/57 31/52/58 61/88/55
f 61/88/55 31/52/58 30/51/18 62/89/17
f 39/61/40 65/92/59 12/21/60 1/2/41
f 65/92/59 68/95/61 13/23/62 12/21/60
f 68/95/61 71/98/13 14/25/16 13/23/62
f 5/11/19 38/59/63 63/90/64 41/65/20
f 41/65/20 63/90/64 64/91/65 40/63/43
f 40/63/43 64/91/65 65/92/59 39/61/40
f 38/59/63 37/58/66 66/93/67 63/90/64
f 63/90/64 66/93/67 67/94/68 64/91/65
f 64/91/65 67/94/68 68/95/61 65/92/59
f 37/58/66 36/57/12 69/96/69 66/93/67
f 66/93/67 69/96/69 70/97/70 67/94/68
f 67/94/68 70/97/70 71/98/13 68/95/61
f 36/57/12 6/12/11 42/67/24 69/96/69
f 69/96/69 42/67/24 43/69/26 70/97/70
f 70/97/70 43/69/26 44/71/14 71/98/13
f 30/51/18 74/101/71 38/59/63 5/11/19
f 74/101/71 77/104/72 37/58/66 38/59/63
f 77/104/72 80/107/9 36/57/12 37/58/66
f 7/13/56 29/50/73 72/99/74 32/53/57
f 32/53/57 72/99/74 73/100/75 31/52/58
f 31/52/58 73/100/75 74/101/71 30/51/18
f 29/50/73 28/49/76 75/102/77 72/99/74
f 72/99/74 75/102/77 76/103/78 73/100/75
f 73/100/75 76/103/78 77/104/72 74/101/71
f 28/49/76 27/48/8 78/105/79 75/102/77
f 75/102/77 78/105/79 79/106/80 76/103/78
f 76/103/78 79/106/80 80/107/9 77/104/72
f 27/48/8 8/14/7 33/54/28 78/105/79
f 78/105/79 33/54/28 34/55/30 79/106/80
f 79/106/80 34/55/30 35/56/10 80/107/9
f 21/37/53 83/110/81 29/50/73 7/13/56
f 83/110/81 86/113/82 28/49/76 29/50/73
f 86/113/82 89/116/5 27/48/8 28/49/76
f 3/8/44 20/35/83 81/108/84 23/41/45
f 23/41/45 81/108/84 82/109/85 22/39/50
f 22/39/50 82/109/85 83/110/81 21/37/53
f 20/35/83 19/34/86 84/111/87 81/108/84
f 81/108/84 84/111/87 85/112/88 82/109/85
f 82/109/85 85/112/88 86/113/82 83/110/81
f 19/34/86 18/33/4 87/114/89 84/111/87
f 84/111/87 87/114/89 88/115/90 85/112/88
f 85/112/88 88/115/90 89/116/5 86/113/82
f 18/33/4 4/10/3 24/43/34 87/114/89
f 87/114/89 24/43/34 25/45/31 88/115/90
f 88/115/90 25/45/31 26/47/6 89/116/5
f 9/16/47 92/119/91 20/35/83 3/8/44
f 92/119/91 95/122/92 19/34/86 20/35/83
f 95/122/92 98/125/1 18/33/4 19/34/86
f 1/3/41 12/22/60 90/117/93 11/20/38
f 11/20/38 90/117/93 91/118/94 10/18/49
f 10/18/49 91/118/94 92/119/91 9/16/47
f 12/22/60 13/24/62 93/120/95 90/117/93
f 90/117/93 93/120/95 94/121/96 91/118/94
f 91/118/94 94/121/96 95/122/92 92/119/91
f 13/24/62 14/26/16 96/123/97 93/120/95
f 93/120/95 96/123/97 97/124/98 94/121/96
f 94/121/96 97/124/98 98/125/1 95/122/92
f 14/26/16 2/6/15 15/28/22 96/123/97
f 96/123/97 15/28/22 16/30/37 97/124/98
f 97/124/98 16/30/37 17/32/2 98/125/1
