# Blender 3.3.0
# www.blender.org
o Table
v -0.737257 0.624823 -0.391320
v -0.737257 0.714786 -0.391320
v -0.737257 0.624823 -0.004509
v -0.737257 0.714786 -0.004509
v -0.002816 0.624823 -0.391320
v -0.002816 0.714786 -0.391320
v -0.002816 0.714786 -0.004509
v -0.002816 0.624823 -0.004509
v -0.660776 -0.021140 -0.240834
v -0.699962 0.639102 -0.201649
v -0.660776 -0.021140 -0.312463
v -0.699962 0.639102 -0.351649
v -0.589147 -0.021140 -0.240834
v -0.549962 0.639102 -0.201649
v -0.589147 -0.021140 -0.312463
v -0.549962 0.639102 -0.351649
v 0.731625 0.624823 -0.391320
v 0.731625 0.714786 -0.391320
v 0.731625 0.624823 -0.004509
v 0.731625 0.714786 -0.004509
v 0.655145 -0.021140 -0.240834
v 0.694330 0.639102 -0.201649
v 0.655145 -0.021140 -0.312463
v 0.694330 0.639102 -0.351649
v 0.583516 -0.021140 -0.240834
v 0.544330 0.639102 -0.201649
v 0.583516 -0.021140 -0.312463
v 0.544330 0.639102 -0.351649
v -0.737257 0.624823 0.382302
v -0.737257 0.714786 0.382302
v -0.002816 0.624823 0.382302
v -0.002816 0.714786 0.382302
v -0.660776 -0.021140 0.231816
v -0.699962 0.639102 0.192630
v -0.660776 -0.021140 0.303445
v -0.699962 0.639102 0.342630
v -0.589147 -0.021140 0.231816
v -0.549962 0.639102 0.192630
v -0.589147 -0.021140 0.303445
v -0.549962 0.639102 0.342630
v 0.731625 0.624823 0.382302
v 0.731625 0.714786 0.382302
v 0.655145 -0.021140 0.231816
v 0.694330 0.639102 0.192630
v 0.655145 -0.021140 0.303445
v 0.694330 0.639102 0.342630
v 0.583516 -0.021140 0.231816
v 0.544330 0.639102 0.192630
v 0.583516 -0.021140 0.303445
v 0.544330 0.639102 0.342630
vn -1.0000 -0.0000 -0.0000
vn -0.0000 1.0000 -0.0000
vn -0.0000 -1.0000 -0.0000
vn -0.0000 -0.0000 -1.0000
vn -0.9982 -0.0592 -0.0000
vn -0.0000 -0.0592 -0.9982
vn 0.9982 -0.0592 -0.0000
vn -0.0000 -0.0592 0.9982
vn 1.0000 -0.0000 -0.0000
vn -0.0000 -0.0000 1.0000
vt 0.067114 0.792791
vt 0.166771 0.974642
vt 0.076535 0.986731
vt 0.005868 0.792791
vt 0.166771 0.974642
vt 0.135965 0.986731
vt 0.067114 0.529454
vt 0.166771 0.974642
vt 0.005868 0.529454
vt 0.166771 0.974642
vt 0.166771 0.974642
vt 0.076535 0.501550
vt 0.166771 0.974642
vt 0.135965 0.501550
vt 0.166771 0.974642
vt 0.166771 0.974642
vt 0.020212 0.005920
vt 0.166771 0.974642
vt 0.004129 0.994080
vt 0.166771 0.974642
vt 0.049612 0.005920
vt 0.020212 0.005920
vt 0.166771 0.974642
vt 0.065695 0.994080
vt 0.004129 0.994080
vt 0.166771 0.974642
vt 0.020212 0.005920
vt 0.049612 0.005920
vt 0.166771 0.974642
vt 0.004129 0.994080
vt 0.065695 0.994080
vt 0.166771 0.974642
vt 0.049612 0.005920
vt 0.166771 0.974642
vt 0.065695 0.994080
vt 0.166771 0.974642
vt 0.067114 0.792791
vt 0.166771 0.974642
vt 0.076535 0.016369
vt 0.005868 0.792791
vt 0.166771 0.974642
vt 0.135965 0.016369
vt 0.067114 0.529454
vt 0.166771 0.974642
vt 0.005868 0.529454
vt 0.166771 0.974642
vt 0.020212 0.005920
vt 0.166771 0.974642
vt 0.004129 0.994080
vt 0.166771 0.974642
vt 0.049612 0.005920
vt 0.020212 0.005920
vt 0.166771 0.974642
vt 0.065695 0.994080
vt 0.004129 0.994080
vt 0.166771 0.974642
vt 0.020212 0.005920
vt 0.049612 0.005920
vt 0.166771 0.974642
vt 0.004129 0.994080
vt 0.065695 0.994080
vt 0.166771 0.974642
vt 0.049612 0.005920
vt 0.166771 0.974642
vt 0.065695 0.994080
vt 0.166771 0.974642
vt 0.067114 0.266116
vt 0.166771 0.974642
vt 0.076535 0.986731
vt 0.005868 0.266116
vt 0.166771 0.974642
vt 0.135965 0.986731
vt 0.166771 0.974642
vt 0.076535 0.501550
vt 0.166771 0.974642
vt 0.135965 0.501550
vt 0.020212 0.005920
vt 0.166771 0.974642
vt 0.004129 0.994080
vt 0.166771 0.974642
vt 0.049612 0.005920
vt 0.020212 0.005920
vt 0.166771 0.974642
vt 0.065695 0.994080
vt 0.004129 0.994080
vt 0.166771 0.974642
vt 0.020212 0.005920
vt 0.049612 0.005920
vt 0.166771 0.974642
vt 0.004129 0.994080
vt 0.065695 0.994080
vt 0.166771 0.974642
vt 0.049612 0.005920
vt 0.166771 0.974642
vt 0.065695 0.994080
vt 0.166771 0.974642
vt 0.067114 0.266116
vt 0.166771 0.974642
vt 0.076535 0.016369
vt 0.005868 0.266116
vt 0.166771 0.974642
vt 0.135965 0.016369
vt 0.020212 0.005920
vt 0.166771 0.974642
vt 0.004129 0.994080
vt 0.166771 0.974642
vt 0.049612 0.005920
vt 0.020212 0.005920
vt 0.166771 0.974642
vt 0.065695 0.994080
vt 0.004129 0.994080
vt 0.166771 0.974642
vt 0.020212 0.005920
vt 0.049612 0.005920
vt 0.166771 0.974642
vt 0.004129 0.994080
vt 0.065695 0.994080
vt 0.166771 0.974642
vt 0.049612 0.005920
vt 0.166771 0.974642
vt 0.065695 0.994080
vt 0.166771 0.974642
s 0
f 3/7/1 4/9/1 2/4/1 1/1/1
f 6/13/2 2/5/2 4/10/2 7/15/2
f 1/2/3 5/11/3 8/16/3 3/8/3
f 1/3/4 2/6/4 6/14/4 5/12/4
f 9/17/5 10/19/5 12/24/5 11/21/5
f 11/22/6 12/25/6 16/35/6 15/33/6
f 15/33/7 16/35/7 14/30/7 13/27/7
f 13/28/8 14/31/8 10/19/8 9/17/8
f 11/23/3 15/34/3 13/29/3 9/18/3
f 16/36/2 12/26/2 10/20/2 14/32/2
f 19/43/9 17/37/9 18/40/9 20/45/9
f 6/13/2 7/15/2 20/46/2 18/41/2
f 17/38/3 19/44/3 8/16/3 5/11/3
f 17/39/4 5/12/4 6/14/4 18/42/4
f 21/47/7 23/51/7 24/54/7 22/49/7
f 23/52/6 27/63/6 28/65/6 24/55/6
f 27/63/5 25/57/5 26/60/5 28/65/5
f 25/58/8 21/47/8 22/49/8 26/61/8
f 23/53/3 21/48/3 25/59/3 27/64/3
f 28/66/2 26/62/2 22/50/2 24/56/2
f 3/7/1 29/67/1 30/70/1 4/9/1
f 32/75/2 7/15/2 4/10/2 30/71/2
f 29/68/3 3/8/3 8/16/3 31/73/3
f 29/69/10 31/74/10 32/76/10 30/72/10
f 33/77/5 35/81/5 36/84/5 34/79/5
f 35/82/8 39/93/8 40/95/8 36/85/8
f 39/93/7 37/87/7 38/90/7 40/95/7
f 37/88/6 33/77/6 34/79/6 38/91/6
f 35/83/3 33/78/3 37/89/3 39/94/3
f 40/96/2 38/92/2 34/80/2 36/86/2
f 19/43/9 20/45/9 42/100/9 41/97/9
f 32/75/2 42/101/2 20/46/2 7/15/2
f 41/98/3 31/73/3 8/16/3 19/44/3
f 41/99/10 42/102/10 32/76/10 31/74/10
f 43/103/7 44/105/7 46/110/7 45/107/7
f 45/108/8 46/111/8 50/121/8 49/119/8
f 49/119/5 50/121/5 48/116/5 47/113/5
f 47/114/6 48/117/6 44/105/6 43/103/6
f 45/109/3 49/120/3 47/115/3 43/104/3
f 50/122/2 46/112/2 44/106/2 48/118/2
