# Blender 3.3.0
# www.blender.org
o Weed
v -0.045582 -0.024782 0.049882
v 0.044385 -0.026771 0.047825
v 0.022245 0.837352 0.505792
v 0.035603 0.837057 0.505486
v -0.000788 -0.016769 0.031849
v 0.028868 0.839851 0.500643
v 0.029357 0.849867 0.512342
v -0.034496 0.133602 0.052375
v 0.013374 0.742722 0.371466
v -0.025079 0.264488 0.069583
v -0.014560 0.404145 0.115743
v -0.003970 0.538902 0.186336
v 0.005656 0.655567 0.274452
v 0.034138 0.742263 0.370991
v 0.040430 0.131946 0.050661
v 0.033559 0.654951 0.273814
v 0.033986 0.538063 0.185468
v 0.035378 0.403041 0.114600
v 0.037598 0.263103 0.068149
v 0.002850 0.143205 0.036317
v 0.023690 0.746270 0.364685
v 0.006144 0.272704 0.055181
v 0.010299 0.410927 0.103291
v 0.014910 0.544344 0.175936
v 0.019524 0.659895 0.266007
v -0.044102 -0.014709 0.004849
v -0.004792 -0.015889 0.041008
v -0.202795 0.496979 0.227683
v -0.196959 0.496804 0.233052
v -0.017528 -0.009953 0.015580
v -0.197844 0.498462 0.228209
v -0.202451 0.504407 0.233412
v -0.040389 0.079294 0.010479
v -0.151288 0.440815 0.166604
v -0.043447 0.156977 0.021713
v -0.057953 0.239865 0.045777
v -0.082488 0.319845 0.080317
v -0.114649 0.389088 0.121951
v -0.142215 0.440543 0.174949
v -0.007651 0.078311 0.040592
v -0.102457 0.388722 0.133166
v -0.065903 0.319347 0.095572
v -0.036133 0.239210 0.065848
v -0.016061 0.156155 0.046903
v -0.017812 0.084994 0.018989
v -0.144086 0.442921 0.167952
v -0.024170 0.161853 0.028410
v -0.042199 0.243890 0.050688
v -0.070135 0.323075 0.083644
v -0.105243 0.391656 0.124050
v -0.052566 -0.019363 -0.047681
v -0.051539 -0.020917 0.022612
v -0.279955 0.654244 0.005314
v -0.279803 0.654013 0.015751
v -0.043571 -0.013102 -0.012683
v -0.277388 0.656196 0.010489
v -0.283222 0.664023 0.010871
v -0.053809 0.104386 -0.039020
v -0.212959 0.580307 -0.001617
v -0.062392 0.206651 -0.031662
v -0.085414 0.315769 -0.023443
v -0.120623 0.421057 -0.015169
v -0.164572 0.512211 -0.007648
v -0.212722 0.579949 0.014606
v -0.052954 0.103092 0.019522
v -0.164254 0.511729 0.014154
v -0.120190 0.420402 0.014487
v -0.084845 0.314906 0.015575
v -0.061677 0.205569 0.017310
v -0.045800 0.111890 -0.009840
v -0.209577 0.583079 0.006443
v -0.055209 0.213070 -0.007267
v -0.079204 0.321067 -0.004020
v -0.115437 0.425309 -0.000417
v -0.160360 0.515592 0.003188
v 0.069408 -0.026471 0.037386
v 0.041311 -0.028250 -0.048110
v 0.505757 0.824847 -0.164075
v 0.501586 0.824582 -0.176769
v 0.039351 -0.017957 -0.000297
v 0.498969 0.827477 -0.168934
v 0.510250 0.837218 -0.172844
v 0.072218 0.131830 0.025248
v 0.377635 0.733379 -0.116166
v 0.088960 0.262294 0.010580
v 0.133284 0.400847 -0.013579
v 0.200851 0.533929 -0.044864
v 0.285049 0.648512 -0.080213
v 0.371150 0.732969 -0.135898
v 0.048818 0.130349 -0.045956
v 0.276335 0.647960 -0.106729
v 0.188998 0.533179 -0.080934
v 0.117688 0.399860 -0.061036
v 0.069385 0.261054 -0.048983
v 0.046248 0.141875 -0.005889
v 0.368238 0.737104 -0.124091
v 0.066318 0.270901 -0.015169
v 0.114319 0.407964 -0.033796
v 0.185553 0.539647 -0.059946
v 0.273048 0.653061 -0.091059
v 0.043226 -0.019490 -0.052307
v -0.040037 -0.020605 -0.061255
v 0.034983 0.815333 -0.413376
v 0.022620 0.815168 -0.414704
v -0.000257 -0.012993 -0.040429
v 0.028258 0.817323 -0.409236
v 0.029201 0.827507 -0.419282
v 0.033294 0.127670 -0.043746
v 0.027157 0.717264 -0.296066
v 0.026655 0.250439 -0.050632
v 0.022451 0.383556 -0.083599
v 0.021094 0.513993 -0.139420
v 0.022715 0.628981 -0.212631
v 0.007940 0.717007 -0.298131
v -0.036050 0.126742 -0.051198
v -0.003109 0.628635 -0.215407
v -0.014034 0.513523 -0.143195
v -0.023766 0.382937 -0.088566
v -0.031352 0.249662 -0.056866
v -0.003082 0.135719 -0.032678
v 0.016829 0.720139 -0.290783
v -0.003872 0.257267 -0.040466
v -0.001972 0.389141 -0.074580
v 0.002433 0.518433 -0.131682
v 0.008911 0.632487 -0.206180
v 0.008097 -0.012355 0.028898
v 0.023813 -0.013347 -0.011982
v 0.198850 0.417461 0.070963
v 0.201183 0.417314 0.064893
v 0.009270 -0.008360 0.005834
v 0.198053 0.418707 0.067157
v 0.202717 0.423700 0.068800
v 0.011107 0.066607 0.024298
v 0.144688 0.370283 0.053560
v 0.019567 0.131860 0.022795
v 0.039550 0.201486 0.025408
v 0.069103 0.268669 0.031882
v 0.105331 0.326832 0.041582
v 0.148316 0.370054 0.044125
v 0.024196 0.065781 -0.009748
v 0.110205 0.326525 0.028903
v 0.075733 0.268251 0.014635
v 0.048274 0.200936 0.002717
v 0.030516 0.131170 -0.005685
v 0.011686 0.071395 0.004906
v 0.143931 0.372052 0.047830
v 0.019668 0.135956 0.006427
v 0.039246 0.204867 0.012219
v 0.068503 0.271382 0.021715
v 0.104575 0.328990 0.033985
v -0.045582 -0.024782 0.049882
v 0.044385 -0.026771 0.047825
v 0.022245 0.837352 0.505792
v 0.035603 0.837057 0.505486
v -0.000788 -0.016769 0.031849
v 0.028868 0.839851 0.500643
v 0.029357 0.849867 0.512342
v -0.034496 0.133602 0.052375
v 0.013374 0.742722 0.371466
v -0.025079 0.264488 0.069583
v -0.014560 0.404145 0.115743
v -0.003970 0.538902 0.186336
v 0.005656 0.655567 0.274452
v 0.034138 0.742263 0.370991
v 0.040430 0.131946 0.050661
v 0.033559 0.654951 0.273814
v 0.033986 0.538063 0.185468
v 0.035378 0.403041 0.114600
v 0.037598 0.263103 0.068149
v 0.002850 0.143205 0.036317
v 0.023690 0.746270 0.364685
v 0.006144 0.272704 0.055181
v 0.010299 0.410927 0.103291
v 0.014910 0.544344 0.175936
v 0.019524 0.659895 0.266007
vn -0.3489 -0.0218 0.9369
vn -0.3698 -0.0653 0.9268
vn -0.3774 -0.0814 0.9225
vn -0.5606 -0.6393 0.5264
vn -0.5637 -0.6456 0.5152
vn -0.5969 -0.6261 0.5017
vn -0.5934 -0.6322 0.4981
vn -0.6197 -0.5832 0.5253
vn 0.5910 -0.6523 0.4745
vn 0.5871 -0.6583 0.4711
vn 0.6167 -0.6105 0.4970
vn 0.5576 -0.6704 0.4895
vn 0.5552 -0.6640 0.5009
vn 0.5434 -0.5937 0.5935
vn 0.5426 -0.5857 0.6021
vn 0.5239 -0.4819 0.7024
vn 0.5238 -0.4814 0.7028
vn 0.4932 -0.3631 0.7905
vn 0.4951 -0.3700 0.7861
vn 0.4537 -0.2156 0.8647
vn 0.4586 -0.2336 0.8574
vn 0.4085 -0.0825 0.9090
vn 0.4152 -0.0990 0.9044
vn -0.5398 -0.5618 0.6269
vn -0.5414 -0.5697 0.6183
vn -0.5118 -0.4586 0.7265
vn -0.5120 -0.4590 0.7261
vn -0.4745 -0.3485 0.8083
vn -0.4721 -0.3418 0.8126
vn -0.4288 -0.2140 0.8777
vn -0.4228 -0.1962 0.8847
vn 0.3900 -0.0382 0.9200
vn -0.9012 -0.0218 0.4329
vn -0.9093 -0.0653 0.4111
vn -0.9117 -0.0814 0.4027
vn -0.7689 -0.6393 -0.0097
vn -0.7634 -0.6456 -0.0199
vn -0.7780 -0.6261 -0.0526
vn -0.7730 -0.6322 -0.0528
vn -0.8107 -0.5832 -0.0515
vn 0.0965 -0.6523 0.7518
vn 0.0961 -0.6583 0.7466
vn 0.0995 -0.6105 0.7857
vn 0.0621 -0.6704 0.7394
vn 0.0525 -0.6640 0.7459
vn -0.0202 -0.5937 0.8045
vn -0.0268 -0.5857 0.8101
vn -0.1099 -0.4819 0.8693
vn -0.1102 -0.4814 0.8695
vn -0.1930 -0.3631 0.9115
vn -0.1887 -0.3700 0.9097
vn -0.2730 -0.2156 0.9376
vn -0.2644 -0.2336 0.9357
vn -0.3362 -0.0825 0.9382
vn -0.3282 -0.0990 0.9394
vn -0.8237 -0.5618 0.0771
vn -0.8189 -0.5697 0.0698
vn -0.8726 -0.4586 0.1682
vn -0.8724 -0.4590 0.1679
vn -0.9025 -0.3485 0.2531
vn -0.9037 -0.3418 0.2578
vn -0.9177 -0.2140 0.3348
vn -0.9182 -0.1962 0.3440
vn -0.3572 -0.0382 0.9332
vn -0.9997 -0.0206 0.0156
vn -0.9728 -0.0145 -0.2312
vn -0.9682 -0.0432 -0.2464
vn -0.9978 -0.0639 0.0148
vn -0.6893 -0.5454 -0.4769
vn -0.6906 -0.5443 -0.4762
vn -0.6674 -0.5447 -0.5078
vn -0.6724 -0.5357 -0.5107
vn -0.6951 -0.4927 -0.5235
vn -0.6399 -0.5755 0.5092
vn -0.6456 -0.5656 0.5132
vn -0.6678 -0.5237 0.5290
vn -0.6664 -0.5726 0.4776
vn -0.6637 -0.5747 0.4788
vn -0.7614 -0.4763 0.4398
vn -0.7545 -0.4847 0.4425
vn -0.8423 -0.3634 0.3980
vn -0.8353 -0.3745 0.4025
vn -0.8977 -0.2600 0.3559
vn -0.8913 -0.2738 0.3614
vn -0.9381 -0.1476 0.3134
vn -0.9326 -0.1663 0.3202
vn -0.9598 -0.0552 0.2751
vn -0.7756 -0.4578 -0.4345
vn -0.7810 -0.4512 -0.4319
vn -0.8520 -0.3513 -0.3881
vn -0.8580 -0.3417 -0.3835
vn -0.9047 -0.2542 -0.3420
vn -0.9103 -0.2417 -0.3361
vn -0.9433 -0.1504 -0.2959
vn -0.9482 -0.1328 -0.2886
vn -0.9650 -0.0255 0.2611
vn 0.9971 -0.0444 0.0624
vn 0.9925 -0.0877 0.0856
vn 0.9901 -0.1037 0.0942
vn 0.6515 -0.6525 0.3871
vn 0.6415 -0.6585 0.3935
vn 0.6387 -0.6388 0.4290
vn 0.6341 -0.6448 0.4268
vn 0.6688 -0.5965 0.4438
vn 0.2677 -0.6622 -0.6998
vn 0.2654 -0.6682 -0.6951
vn 0.2827 -0.6209 -0.7311
vn 0.2913 -0.6807 -0.6721
vn 0.3030 -0.6745 -0.6732
vn 0.3967 -0.6065 -0.6891
vn 0.4054 -0.5987 -0.6908
vn 0.5091 -0.4973 -0.7025
vn 0.5095 -0.4969 -0.7025
vn 0.6050 -0.3807 -0.6993
vn 0.6001 -0.3874 -0.6998
vn 0.6908 -0.2350 -0.6838
vn 0.6820 -0.2528 -0.6862
vn 0.7494 -0.1031 -0.6541
vn 0.7426 -0.1194 -0.6590
vn 0.7434 -0.5773 0.3378
vn 0.7355 -0.5850 0.3418
vn 0.8329 -0.4764 0.2816
vn 0.8326 -0.4768 0.2819
vn 0.9029 -0.3683 0.2216
vn 0.9065 -0.3616 0.2181
vn 0.9592 -0.2353 0.1571
vn 0.9645 -0.2177 0.1492
vn 0.7663 -0.0590 -0.6398
vn 0.4660 0.0513 -0.8833
vn 0.4855 0.0069 -0.8742
vn 0.4924 -0.0096 -0.8703
vn 0.6234 -0.5999 -0.5015
vn 0.6251 -0.6072 -0.4905
vn 0.6563 -0.5892 -0.4714
vn 0.6523 -0.5956 -0.4688
vn 0.6819 -0.5447 -0.4882
vn -0.5253 -0.6050 -0.5984
vn -0.5219 -0.6113 -0.5950
vn -0.5479 -0.5612 -0.6204
vn -0.4903 -0.6221 -0.6104
vn -0.4865 -0.6148 -0.6208
vn -0.4629 -0.5373 -0.7050
vn -0.4610 -0.5286 -0.7128
vn -0.4296 -0.4171 -0.8009
vn -0.4294 -0.4167 -0.8012
vn -0.3879 -0.2919 -0.8743
vn -0.3903 -0.2991 -0.8708
vn -0.3392 -0.1392 -0.9304
vn -0.3450 -0.1577 -0.9253
vn -0.2887 -0.0035 -0.9574
vn -0.2959 -0.0202 -0.9550
vn 0.6157 -0.5142 -0.5971
vn 0.6162 -0.5228 -0.5890
vn 0.6007 -0.4029 -0.6905
vn 0.6008 -0.4033 -0.6902
vn 0.5741 -0.2862 -0.7671
vn 0.5724 -0.2791 -0.7711
vn 0.5377 -0.1459 -0.8304
vn 0.5327 -0.1276 -0.8367
vn -0.2689 0.0415 -0.9623
vn 0.7651 -0.0188 0.6436
vn 0.7507 -0.0560 0.6583
vn 0.7444 -0.0710 0.6639
vn 0.3353 -0.6047 0.7224
vn 0.3287 -0.6086 0.7222
vn 0.2996 -0.5960 0.7450
vn 0.2995 -0.5963 0.7448
vn 0.3153 -0.5492 0.7739
vn 0.7080 -0.6239 -0.3310
vn 0.7400 -0.5779 -0.3442
vn 0.7147 -0.6349 -0.2936
vn 0.7196 -0.6311 -0.2897
vn 0.8020 -0.5503 -0.2324
vn 0.8035 -0.5485 -0.2314
vn 0.8842 -0.4365 -0.1663
vn 0.8813 -0.4412 -0.1691
vn 0.9411 -0.3222 -0.1024
vn 0.9368 -0.3329 -0.1080
vn 0.9814 -0.1877 -0.0392
vn 0.9772 -0.2071 -0.0476
vn 0.9974 -0.0711 0.0152
vn 0.9962 -0.0865 0.0074
vn 0.4370 -0.5234 0.7315
vn 0.4349 -0.5255 0.7313
vn 0.5372 -0.4180 0.7326
vn 0.5411 -0.4137 0.7322
vn 0.6202 -0.3120 0.7198
vn 0.6271 -0.3018 0.7181
vn 0.6920 -0.1889 0.6968
vn 0.7010 -0.1700 0.6926
vn 0.9989 -0.0330 0.0344
vt 0.760944 0.041323
vt 0.810034 0.041323
vt 0.781845 0.574074
vt 0.789134 0.574074
vt 0.785489 0.041323
vt 0.785489 0.574074
vt 0.785489 0.581891
vt 0.763970 0.118450
vt 0.778707 0.494081
vt 0.763006 0.183044
vt 0.754727 0.253782
vt 0.752490 0.359176
vt 0.771094 0.429955
vt 0.792272 0.494081
vt 0.807009 0.118450
vt 0.799885 0.429956
vt 0.818489 0.359176
vt 0.816252 0.253782
vt 0.807973 0.183044
vt 0.785489 0.119597
vt 0.785489 0.494231
vt 0.785490 0.183819
vt 0.785489 0.254199
vt 0.785489 0.359615
vt 0.785489 0.430158
vt 0.760944 0.041323
vt 0.810034 0.041323
vt 0.781845 0.574074
vt 0.789134 0.574074
vt 0.785489 0.041323
vt 0.785489 0.574074
vt 0.785489 0.581891
vt 0.763970 0.118450
vt 0.778707 0.494081
vt 0.763006 0.183044
vt 0.754727 0.253782
vt 0.752490 0.359176
vt 0.771094 0.429955
vt 0.792272 0.494081
vt 0.807009 0.118450
vt 0.799885 0.429956
vt 0.818489 0.359176
vt 0.816252 0.253782
vt 0.807973 0.183044
vt 0.785489 0.119597
vt 0.785489 0.494231
vt 0.785490 0.183819
vt 0.785489 0.254199
vt 0.785489 0.359615
vt 0.785489 0.430158
vt 0.760944 0.041323
vt 0.810034 0.041323
vt 0.781845 0.574074
vt 0.789134 0.574074
vt 0.785489 0.041323
vt 0.785489 0.574074
vt 0.785489 0.581891
vt 0.763970 0.118450
vt 0.778707 0.494081
vt 0.763006 0.183044
vt 0.754727 0.253782
vt 0.752490 0.359176
vt 0.771094 0.429955
vt 0.792272 0.494081
vt 0.807009 0.118450
vt 0.799885 0.429956
vt 0.818489 0.359176
vt 0.816252 0.253782
vt 0.807973 0.183044
vt 0.785489 0.119597
vt 0.785489 0.494231
vt 0.785490 0.183819
vt 0.785489 0.254199
vt 0.785489 0.359615
vt 0.785489 0.430158
vt 0.760944 0.041323
vt 0.810034 0.041323
vt 0.781845 0.574074
vt 0.789134 0.574074
vt 0.785489 0.041323
vt 0.785489 0.574074
vt 0.785489 0.581891
vt 0.763970 0.118450
vt 0.778707 0.494081
vt 0.763006 0.183044
vt 0.754727 0.253782
vt 0.752490 0.359176
vt 0.771094 0.429955
vt 0.792272 0.494081
vt 0.807009 0.118450
vt 0.799885 0.429956
vt 0.818489 0.359176
vt 0.816252 0.253782
vt 0.807973 0.183044
vt 0.785489 0.119597
vt 0.785489 0.494231
vt 0.785490 0.183819
vt 0.785489 0.254199
vt 0.785489 0.359615
vt 0.785489 0.430158
vt 0.760944 0.041323
vt 0.810034 0.041323
vt 0.781845 0.574074
vt 0.789134 0.574074
vt 0.785489 0.041323
vt 0.785489 0.574074
vt 0.785489 0.581891
vt 0.763970 0.118450
vt 0.778707 0.494081
vt 0.763006 0.183044
vt 0.754727 0.253782
vt 0.752490 0.359176
vt 0.771094 0.429955
vt 0.792272 0.494081
vt 0.807009 0.118450
vt 0.799885 0.429956
vt 0.818489 0.359176
vt 0.816252 0.253782
vt 0.807973 0.183044
vt 0.785489 0.119597
vt 0.785489 0.494231
vt 0.785490 0.183819
vt 0.785489 0.254199
vt 0.785489 0.359615
vt 0.785489 0.430158
vt 0.760944 0.041323
vt 0.810034 0.041323
vt 0.781845 0.574074
vt 0.789134 0.574074
vt 0.785489 0.041323
vt 0.785489 0.574074
vt 0.785489 0.581891
vt 0.763970 0.118450
vt 0.778707 0.494081
vt 0.763006 0.183044
vt 0.754727 0.253782
vt 0.752490 0.359176
vt 0.771094 0.429955
vt 0.792272 0.494081
vt 0.807009 0.118450
vt 0.799885 0.429956
vt 0.818489 0.359176
vt 0.816252 0.253782
vt 0.807973 0.183044
vt 0.785489 0.119597
vt 0.785489 0.494231
vt 0.785490 0.183819
vt 0.785489 0.254199
vt 0.785489 0.359615
vt 0.785489 0.430158
vt 0.760944 0.041323
vt 0.810034 0.041323
vt 0.781845 0.574074
vt 0.789134 0.574074
vt 0.785489 0.041323
vt 0.785489 0.574074
vt 0.785489 0.581891
vt 0.763970 0.118450
vt 0.778707 0.494081
vt 0.763006 0.183044
vt 0.754727 0.253782
vt 0.752490 0.359176
vt 0.771094 0.429955
vt 0.792272 0.494081
vt 0.807009 0.118450
vt 0.799885 0.429956
vt 0.818489 0.359176
vt 0.816252 0.253782
vt 0.807973 0.183044
vt 0.785489 0.119597
vt 0.785489 0.494231
vt 0.785490 0.183819
vt 0.785489 0.254199
vt 0.785489 0.359615
vt 0.785489 0.430158
s 1
f 5/5/1 2/2/1 15/15/2 20/20/3
f 21/21/4 14/14/5 4/4/6 6/6/7
f 4/4/6 7/7/8 6/6/7
f 3/3/9 6/6/10 7/7/11
f 9/9/12 21/21/13 6/6/10 3/3/9
f 21/21/13 9/9/12 13/13/14 25/25/15
f 25/25/15 13/13/14 12/12/16 24/24/17
f 24/24/17 12/12/16 11/11/18 23/23/19
f 23/23/19 11/11/18 10/10/20 22/22/21
f 22/22/21 10/10/20 8/8/22 20/20/23
f 14/14/5 21/21/4 25/25/24 16/16/25
f 16/16/25 25/25/24 24/24/26 17/17/27
f 17/17/27 24/24/26 23/23/28 18/18/29
f 18/18/29 23/23/28 22/22/30 19/19/31
f 19/19/31 22/22/30 20/20/3 15/15/2
f 1/1/32 5/5/32 20/20/23 8/8/22
f 30/30/33 27/27/33 40/40/34 45/45/35
f 46/46/36 39/39/37 29/29/38 31/31/39
f 29/29/38 32/32/40 31/31/39
f 28/28/41 31/31/42 32/32/43
f 34/34/44 46/46/45 31/31/42 28/28/41
f 46/46/45 34/34/44 38/38/46 50/50/47
f 50/50/47 38/38/46 37/37/48 49/49/49
f 49/49/49 37/37/48 36/36/50 48/48/51
f 48/48/51 36/36/50 35/35/52 47/47/53
f 47/47/53 35/35/52 33/33/54 45/45/55
f 39/39/37 46/46/36 50/50/56 41/41/57
f 41/41/57 50/50/56 49/49/58 42/42/59
f 42/42/59 49/49/58 48/48/60 43/43/61
f 43/43/61 48/48/60 47/47/62 44/44/63
f 44/44/63 47/47/62 45/45/35 40/40/34
f 26/26/64 30/30/64 45/45/55 33/33/54
f 55/55/65 52/52/66 65/65/67 70/70/68
f 71/71/69 64/64/70 54/54/71 56/56/72
f 54/54/71 57/57/73 56/56/72
f 53/53/74 56/56/75 57/57/76
f 59/59/77 71/71/78 56/56/75 53/53/74
f 71/71/78 59/59/77 63/63/79 75/75/80
f 75/75/80 63/63/79 62/62/81 74/74/82
f 74/74/82 62/62/81 61/61/83 73/73/84
f 73/73/84 61/61/83 60/60/85 72/72/86
f 72/72/86 60/60/85 58/58/87 70/70/68
f 64/64/70 71/71/69 75/75/88 66/66/89
f 66/66/89 75/75/88 74/74/90 67/67/91
f 67/67/91 74/74/90 73/73/92 68/68/93
f 68/68/93 73/73/92 72/72/94 69/69/95
f 69/69/95 72/72/94 70/70/68 65/65/67
f 51/51/96 55/55/65 70/70/68 58/58/87
f 80/80/97 77/77/97 90/90/98 95/95/99
f 96/96/100 89/89/101 79/79/102 81/81/103
f 79/79/102 82/82/104 81/81/103
f 78/78/105 81/81/106 82/82/107
f 84/84/108 96/96/109 81/81/106 78/78/105
f 96/96/109 84/84/108 88/88/110 100/100/111
f 100/100/111 88/88/110 87/87/112 99/99/113
f 99/99/113 87/87/112 86/86/114 98/98/115
f 98/98/115 86/86/114 85/85/116 97/97/117
f 97/97/117 85/85/116 83/83/118 95/95/119
f 89/89/101 96/96/100 100/100/120 91/91/121
f 91/91/121 100/100/120 99/99/122 92/92/123
f 92/92/123 99/99/122 98/98/124 93/93/125
f 93/93/125 98/98/124 97/97/126 94/94/127
f 94/94/127 97/97/126 95/95/99 90/90/98
f 76/76/128 80/80/128 95/95/119 83/83/118
f 105/105/129 102/102/129 115/115/130 120/120/131
f 121/121/132 114/114/133 104/104/134 106/106/135
f 104/104/134 107/107/136 106/106/135
f 103/103/137 106/106/138 107/107/139
f 109/109/140 121/121/141 106/106/138 103/103/137
f 121/121/141 109/109/140 113/113/142 125/125/143
f 125/125/143 113/113/142 112/112/144 124/124/145
f 124/124/145 112/112/144 111/111/146 123/123/147
f 123/123/147 111/111/146 110/110/148 122/122/149
f 122/122/149 110/110/148 108/108/150 120/120/151
f 114/114/133 121/121/132 125/125/152 116/116/153
f 116/116/153 125/125/152 124/124/154 117/117/155
f 117/117/155 124/124/154 123/123/156 118/118/157
f 118/118/157 123/123/156 122/122/158 119/119/159
f 119/119/159 122/122/158 120/120/131 115/115/130
f 101/101/160 105/105/160 120/120/151 108/108/150
f 130/130/161 127/127/161 140/140/162 145/145/163
f 146/146/164 139/139/165 129/129/166 131/131/167
f 129/129/166 132/132/168 131/131/167
f 128/128/169 131/131/169 132/132/170
f 134/134/171 146/146/172 131/131/169 128/128/169
f 146/146/172 134/134/171 138/138/173 150/150/174
f 150/150/174 138/138/173 137/137/175 149/149/176
f 149/149/176 137/137/175 136/136/177 148/148/178
f 148/148/178 136/136/177 135/135/179 147/147/180
f 147/147/180 135/135/179 133/133/181 145/145/182
f 139/139/165 146/146/164 150/150/183 141/141/184
f 141/141/184 150/150/183 149/149/185 142/142/186
f 142/142/186 149/149/185 148/148/187 143/143/188
f 143/143/188 148/148/187 147/147/189 144/144/190
f 144/144/190 147/147/189 145/145/163 140/140/162
f 126/126/191 130/130/191 145/145/182 133/133/181
f 155/155/1 152/152/1 165/165/2 170/170/3
f 171/171/4 164/164/5 154/154/6 156/156/7
f 154/154/6 157/157/8 156/156/7
f 153/153/9 156/156/10 157/157/11
f 159/159/12 171/171/13 156/156/10 153/153/9
f 171/171/13 159/159/12 163/163/14 175/175/15
f 175/175/15 163/163/14 162/162/16 174/174/17
f 174/174/17 162/162/16 161/161/18 173/173/19
f 173/173/19 161/161/18 160/160/20 172/172/21
f 172/172/21 160/160/20 158/158/22 170/170/23
f 164/164/5 171/171/4 175/175/24 166/166/25
f 166/166/25 175/175/24 174/174/26 167/167/27
f 167/167/27 174/174/26 173/173/28 168/168/29
f 168/168/29 173/173/28 172/172/30 169/169/31
f 169/169/31 172/172/30 170/170/3 165/165/2
f 151/151/32 155/155/32 170/170/23 158/158/22
